{
  "source": "C:\\Users\\Peter\\Desktop\\stuff\\MIUN\\quantitative_research\\video_compression\\videos\\BVI-HD\\BVI-HD_CDVL_videos\\ORIG\\BricksLeaves_1920x1080_60fps.mp4",
  "output": "C:\\Users\\Peter\\Desktop\\stuff\\MIUN\\quantitative_research\\video_compression\\compressed_videos\\BVI-HD\\hevc\\3\\BricksLeaves_1920x1080_60fps_hevc.mp4",
  "codec": "hevc",
  "ok": "Input #0, mov,mp4,m4a,3gp,3g2,mj2, from 'C:\\Users\\Peter\\Desktop\\stuff\\MIUN\\quantitative_research\\video_compression\\videos\\BVI-HD\\BVI-HD_CDVL_videos\\ORIG\\BricksLeaves_1920x1080_60fps.mp4':\n  Metadata:\n    major_brand     : isom\n    minor_version   : 512\n    compatible_brands: isomiso2avc1mp41\n    encoder         : Lavf54.28.101\n  Duration: 00:00:05.00, start: 0.000000, bitrate: 524627 kb/s\n  Stream #0:0[0x1](und): Video: h264 (High 4:4:4 Predictive) (avc1 / 0x31637661), yuv420p(progressive), 1920x1080, 524622 kb/s, 60 fps, 60 tbr, 60 tbn (default)\n    Metadata:\n      handler_name    : VideoHandler\n      vendor_id       : [0][0][0][0]\n[out#0/mp4 @ 000002295486ab40] Codec AVOption b:a (set bitrate (in bits/s)) has not been used for any stream. The most likely reason is either wrong type (e.g. a video option with no video streams) or that it is a private option of some decoder which was not actually used for any stream.\nStream mapping:\n  Stream #0:0 -> #0:0 (h264 (native) -> hevc (libx265))\nPress [q] to stop, [?] for help\n[libx265 @ 00000229554104c0] Unknown option: \"aq-mode.\nx265 [info]: HEVC encoder version 4.1+190-8f11c33ac\nx265 [info]: build info [Windows][GCC 15.1.0][64 bit] 10bit\nx265 [info]: using cpu capabilities: MMX2 SSE2Fast LZCNT SSSE3 SSE4.2 AVX FMA3 BMI2 AVX2\nx265 [info]: Main 10 profile, Level-4.1 (Main tier)\nx265 [info]: Thread pool created using 12 threads\nx265 [info]: Slices                              : 1\nx265 [info]: frame threads / pool features       : 3 / wpp(17 rows)\nx265 [info]: Coding QT: max CU size, min CU size : 64 / 8\nx265 [info]: Residual QT: max TU size, max depth : 32 / 1 inter / 1 intra\nx265 [info]: ME / range / subpel / merge         : star / 57 / 3 / 3\nx265 [info]: Keyframe min / max / scenecut / bias  : 25 / 250 / 40 / 5.00 \nx265 [info]: Lookahead / bframes / badapt        : 25 / 4 / 2\nx265 [info]: b-pyramid / weightp / weightb       : 1 / 1 / 0\nx265 [info]: References / ref-limit  cu / depth  : 4 / on / on\nx265 [info]: AQ: mode / str / qg-size / cu-tree  : 2 / 1.0 / 32 / 1\nx265 [info]: Rate Control / qCompress            : ABR-3000 kbps / 0.60\nx265 [info]: VBV/HRD buffer / max-rate / init    : 3000 / 3000 / 0.750\nx265 [info]: tools: rect limit-modes rd=4 psy-rd=2.00 rdoq=2 psy-rdoq=1.00\nx265 [info]: tools: rskip mode=1 signhide tmvp strong-intra-smoothing lslices=4\nx265 [info]: tools: deblock sao dhdr10-info\nOutput #0, mp4, to 'C:\\Users\\Peter\\Desktop\\stuff\\MIUN\\quantitative_research\\video_compression\\compressed_videos\\BVI-HD\\hevc\\3\\BricksLeaves_1920x1080_60fps_hevc.mp4':\n  Metadata:\n    major_brand     : isom\n    minor_version   : 512\n    compatible_brands: isomiso2avc1mp41\n    encoder         : Lavf62.3.100\n  Stream #0:0(und): Video: hevc (hev1 / 0x31766568), yuv420p10le(tv, progressive), 1920x1080, q=2-31, 3000 kb/s, 60 fps, 15360 tbn (default)\n    Metadata:\n      encoder         : Lavc62.11.100 libx265\n      handler_name    : VideoHandler\n      vendor_id       : [0][0][0][0]\n    Side data:\n      cpb: bitrate max/min/avg: 3000000/0/3000000 buffer size: 3000000 vbv_delay: N/A\nframe=    0 fps=0.0 q=0.0 size=       0KiB time=N/A bitrate=N/A speed=N/A elapsed=0:00:00.51    \nframe=    0 fps=0.0 q=0.0 size=       0KiB time=N/A bitrate=N/A speed=N/A elapsed=0:00:01.02    \nframe=    0 fps=0.0 q=0.0 size=       0KiB time=N/A bitrate=N/A speed=N/A elapsed=0:00:01.55    \nframe=    0 fps=0.0 q=0.0 size=       0KiB time=N/A bitrate=N/A speed=N/A elapsed=0:00:02.08    \nframe=    0 fps=0.0 q=0.0 size=       0KiB time=N/A bitrate=N/A speed=N/A elapsed=0:00:02.62    \nframe=    0 fps=0.0 q=0.0 size=       0KiB time=N/A bitrate=N/A speed=N/A elapsed=0:00:03.14    \nframe=    0 fps=0.0 q=0.0 size=       0KiB time=N/A bitrate=N/A speed=N/A elapsed=0:00:03.66    \nframe=    0 fps=0.0 q=0.0 size=       0KiB time=N/A bitrate=N/A speed=N/A elapsed=0:00:04.18    \nframe=    0 fps=0.0 q=0.0 size=       0KiB time=N/A bitrate=N/A speed=N/A elapsed=0:00:04.70    \nframe=    0 fps=0.0 q=0.0 size=       0KiB time=N/A bitrate=N/A speed=N/A elapsed=0:00:05.21    \nframe=    0 fps=0.0 q=0.0 size=       0KiB time=N/A bitrate=N/A speed=N/A elapsed=0:00:05.73    \nframe=    0 fps=0.0 q=0.0 size=       0KiB time=N/A bitrate=N/A speed=N/A elapsed=0:00:06.26    \nframe=    0 fps=0.0 q=0.0 size=       0KiB time=N/A bitrate=N/A speed=N/A elapsed=0:00:06.83    \nframe=    0 fps=0.0 q=0.0 size=       0KiB time=N/A bitrate=N/A speed=N/A elapsed=0:00:07.36    \nframe=    0 fps=0.0 q=0.0 size=       0KiB time=N/A bitrate=N/A speed=N/A elapsed=0:00:07.87    \nframe=    1 fps=0.1 q=40.5 size=       0KiB time=-00:00:00.01 bitrate=N/A speed=N/A elapsed=0:00:08.42    \nframe=    1 fps=0.1 q=40.5 size=       0KiB time=-00:00:00.01 bitrate=N/A speed=N/A elapsed=0:00:08.94    \nframe=    2 fps=0.2 q=48.8 size=       0KiB time=00:00:00.00 bitrate=N/A speed=   0x elapsed=0:00:09.46    \nframe=    4 fps=0.4 q=51.0 size=       0KiB time=00:00:00.03 bitrate=  10.6kbits/s speed=0.00334x elapsed=0:00:09.98    \nframe=    4 fps=0.4 q=51.0 size=       0KiB time=00:00:00.03 bitrate=  10.6kbits/s speed=0.00317x elapsed=0:00:10.52    \nframe=    4 fps=0.4 q=51.0 size=       0KiB time=00:00:00.03 bitrate=  10.6kbits/s speed=0.00302x elapsed=0:00:11.04    \nframe=    6 fps=0.5 q=49.9 size=       0KiB time=00:00:00.06 bitrate=   5.3kbits/s speed=0.00576x elapsed=0:00:11.56    \nframe=    6 fps=0.5 q=49.9 size=       0KiB time=00:00:00.06 bitrate=   5.3kbits/s speed=0.00552x elapsed=0:00:12.08    \nframe=    6 fps=0.5 q=49.9 size=       0KiB time=00:00:00.06 bitrate=   5.3kbits/s speed=0.00529x elapsed=0:00:12.60    \nframe=    6 fps=0.5 q=49.9 size=       0KiB time=00:00:00.06 bitrate=   5.3kbits/s speed=0.00508x elapsed=0:00:13.12    \nframe=    7 fps=0.5 q=43.1 size=       0KiB time=00:00:00.08 bitrate=   4.2kbits/s speed=0.00611x elapsed=0:00:13.63    \nframe=    8 fps=0.6 q=46.2 size=       0KiB time=00:00:00.10 bitrate=   3.5kbits/s speed=0.00706x elapsed=0:00:14.15    \nframe=    8 fps=0.5 q=46.2 size=       0KiB time=00:00:00.10 bitrate=   3.5kbits/s speed=0.00681x elapsed=0:00:14.68    \nframe=   10 fps=0.7 q=46.1 size=       0KiB time=00:00:00.13 bitrate=   2.6kbits/s speed=0.00875x elapsed=0:00:15.23    \nframe=   10 fps=0.6 q=46.1 size=       0KiB time=00:00:00.13 bitrate=   2.6kbits/s speed=0.00844x elapsed=0:00:15.79    \nframe=   10 fps=0.6 q=46.1 size=       0KiB time=00:00:00.13 bitrate=   2.6kbits/s speed=0.00818x elapsed=0:00:16.30    \nframe=   11 fps=0.7 q=46.0 size=       0KiB time=00:00:00.15 bitrate=   2.3kbits/s speed=0.00891x elapsed=0:00:16.83    \nframe=   13 fps=0.7 q=45.0 size=       0KiB time=00:00:00.18 bitrate=   1.9kbits/s speed=0.0106x elapsed=0:00:17.33    \nframe=   13 fps=0.7 q=45.0 size=       0KiB time=00:00:00.18 bitrate=   1.9kbits/s speed=0.0102x elapsed=0:00:17.88    \nframe=   13 fps=0.7 q=45.0 size=       0KiB time=00:00:00.18 bitrate=   1.9kbits/s speed=0.00995x elapsed=0:00:18.42    \nframe=   13 fps=0.7 q=45.0 size=       0KiB time=00:00:00.18 bitrate=   1.9kbits/s speed=0.00967x elapsed=0:00:18.96    \nframe=   14 fps=0.7 q=45.2 size=       0KiB time=00:00:00.20 bitrate=   1.8kbits/s speed=0.0103x elapsed=0:00:19.49    \nframe=   14 fps=0.7 q=45.2 size=       0KiB time=00:00:00.20 bitrate=   1.8kbits/s speed=0.00997x elapsed=0:00:20.06    \nframe=   14 fps=0.7 q=45.2 size=       0KiB time=00:00:00.20 bitrate=   1.8kbits/s speed=0.00971x elapsed=0:00:20.59    \nframe=   14 fps=0.7 q=45.2 size=       0KiB time=00:00:00.20 bitrate=   1.8kbits/s speed=0.00945x elapsed=0:00:21.15    \nframe=   15 fps=0.7 q=46.4 size=       0KiB time=00:00:00.21 bitrate=   1.6kbits/s speed=0.01x elapsed=0:00:21.66    \nframe=   15 fps=0.7 q=46.4 size=       0KiB time=00:00:00.21 bitrate=   1.6kbits/s speed=0.00976x elapsed=0:00:22.20    \nframe=   16 fps=0.7 q=46.2 size=       0KiB time=00:00:00.23 bitrate=   1.5kbits/s speed=0.0103x elapsed=0:00:22.71    \nframe=   16 fps=0.7 q=46.2 size=       0KiB time=00:00:00.23 bitrate=   1.5kbits/s speed=0.01x elapsed=0:00:23.23    \nframe=   16 fps=0.7 q=46.2 size=       0KiB time=00:00:00.23 bitrate=   1.5kbits/s speed=0.0098x elapsed=0:00:23.79    \nframe=   18 fps=0.7 q=45.4 size=       0KiB time=00:00:00.26 bitrate=   1.3kbits/s speed=0.011x elapsed=0:00:24.33    \nframe=   18 fps=0.7 q=45.4 size=       0KiB time=00:00:00.26 bitrate=   1.3kbits/s speed=0.0107x elapsed=0:00:24.87    \nframe=   19 fps=0.7 q=46.6 size=       0KiB time=00:00:00.28 bitrate=   1.2kbits/s speed=0.0111x elapsed=0:00:25.46    \nframe=   19 fps=0.7 q=46.6 size=       0KiB time=00:00:00.28 bitrate=   1.2kbits/s speed=0.0109x elapsed=0:00:25.98    \nframe=   19 fps=0.7 q=46.6 size=       0KiB time=00:00:00.28 bitrate=   1.2kbits/s speed=0.0107x elapsed=0:00:26.51    \nframe=   20 fps=0.7 q=46.7 size=       0KiB time=00:00:00.30 bitrate=   1.2kbits/s speed=0.0111x elapsed=0:00:27.07    \nframe=   20 fps=0.7 q=46.7 size=       0KiB time=00:00:00.30 bitrate=   1.2kbits/s speed=0.0109x elapsed=0:00:27.62    \nframe=   20 fps=0.7 q=46.7 size=       0KiB time=00:00:00.30 bitrate=   1.2kbits/s speed=0.0106x elapsed=0:00:28.19    \nframe=   20 fps=0.7 q=46.7 size=       0KiB time=00:00:00.30 bitrate=   1.2kbits/s speed=0.0104x elapsed=0:00:28.74    \nframe=   21 fps=0.7 q=46.6 size=       0KiB time=00:00:00.31 bitrate=   1.1kbits/s speed=0.0108x elapsed=0:00:29.26    \nframe=   21 fps=0.7 q=46.6 size=       0KiB time=00:00:00.31 bitrate=   1.1kbits/s speed=0.0106x elapsed=0:00:29.77    \nframe=   21 fps=0.7 q=46.6 size=       0KiB time=00:00:00.31 bitrate=   1.1kbits/s speed=0.0104x elapsed=0:00:30.30    \nframe=   22 fps=0.7 q=39.2 size=       0KiB time=00:00:00.33 bitrate=   1.1kbits/s speed=0.0108x elapsed=0:00:30.84    \nframe=   23 fps=0.7 q=45.3 size=       0KiB time=00:00:00.35 bitrate=   1.0kbits/s speed=0.0111x elapsed=0:00:31.39    \nframe=   23 fps=0.7 q=45.3 size=       0KiB time=00:00:00.35 bitrate=   1.0kbits/s speed=0.011x elapsed=0:00:31.92    \nframe=   23 fps=0.7 q=45.3 size=       0KiB time=00:00:00.35 bitrate=   1.0kbits/s speed=0.0108x elapsed=0:00:32.50    \nframe=   23 fps=0.7 q=45.3 size=       0KiB time=00:00:00.35 bitrate=   1.0kbits/s speed=0.0106x elapsed=0:00:33.04    \nframe=   24 fps=0.7 q=46.1 size=       0KiB time=00:00:00.36 bitrate=   1.0kbits/s speed=0.0109x elapsed=0:00:33.59    \nframe=   24 fps=0.7 q=46.1 size=       0KiB time=00:00:00.36 bitrate=   1.0kbits/s speed=0.0107x elapsed=0:00:34.14    \nframe=   24 fps=0.7 q=46.1 size=       0KiB time=00:00:00.36 bitrate=   1.0kbits/s speed=0.0106x elapsed=0:00:34.67    \nframe=   24 fps=0.7 q=46.1 size=       0KiB time=00:00:00.36 bitrate=   1.0kbits/s speed=0.0104x elapsed=0:00:35.19    \nframe=   25 fps=0.7 q=45.6 size=       0KiB time=00:00:00.38 bitrate=   0.9kbits/s speed=0.0107x elapsed=0:00:35.76    \nframe=   25 fps=0.7 q=45.6 size=       0KiB time=00:00:00.38 bitrate=   0.9kbits/s speed=0.0106x elapsed=0:00:36.31    \nframe=   25 fps=0.7 q=45.6 size=       0KiB time=00:00:00.38 bitrate=   0.9kbits/s speed=0.0104x elapsed=0:00:36.86    \nframe=   26 fps=0.7 q=45.6 size=       0KiB time=00:00:00.40 bitrate=   0.9kbits/s speed=0.0107x elapsed=0:00:37.39    \nframe=   26 fps=0.7 q=45.6 size=       0KiB time=00:00:00.40 bitrate=   0.9kbits/s speed=0.0105x elapsed=0:00:37.96    \nframe=   27 fps=0.7 q=38.3 size=       0KiB time=00:00:00.41 bitrate=   0.8kbits/s speed=0.0108x elapsed=0:00:38.53    \nframe=   28 fps=0.7 q=44.4 size=       0KiB time=00:00:00.43 bitrate=   0.8kbits/s speed=0.0111x elapsed=0:00:39.09    \nframe=   28 fps=0.7 q=44.4 size=       0KiB time=00:00:00.43 bitrate=   0.8kbits/s speed=0.0109x elapsed=0:00:39.68    \nframe=   29 fps=0.7 q=45.5 size=       0KiB time=00:00:00.45 bitrate=   0.8kbits/s speed=0.0112x elapsed=0:00:40.28    \nframe=   30 fps=0.7 q=45.0 size=       0KiB time=00:00:00.46 bitrate=   0.8kbits/s speed=0.0114x elapsed=0:00:40.84    \nframe=   31 fps=0.7 q=45.2 size=       0KiB time=00:00:00.48 bitrate=   0.7kbits/s speed=0.0117x elapsed=0:00:41.37    \nframe=   31 fps=0.7 q=45.2 size=       0KiB time=00:00:00.48 bitrate=   0.7kbits/s speed=0.0115x elapsed=0:00:41.93    \nframe=   31 fps=0.7 q=45.2 size=       0KiB time=00:00:00.48 bitrate=   0.7kbits/s speed=0.0114x elapsed=0:00:42.49    \nframe=   31 fps=0.7 q=45.2 size=       0KiB time=00:00:00.48 bitrate=   0.7kbits/s speed=0.0112x elapsed=0:00:43.06    \nframe=   31 fps=0.7 q=45.2 size=       0KiB time=00:00:00.48 bitrate=   0.7kbits/s speed=0.0111x elapsed=0:00:43.59    \nframe=   32 fps=0.7 q=38.1 size=       0KiB time=00:00:00.50 bitrate=   0.7kbits/s speed=0.0113x elapsed=0:00:44.23    \nframe=   32 fps=0.7 q=38.1 size=       0KiB time=00:00:00.50 bitrate=   0.7kbits/s speed=0.0111x elapsed=0:00:44.88    \nframe=   32 fps=0.7 q=38.1 size=       0KiB time=00:00:00.50 bitrate=   0.7kbits/s speed=0.011x elapsed=0:00:45.49    \nframe=   32 fps=0.7 q=38.1 size=       0KiB time=00:00:00.50 bitrate=   0.7kbits/s speed=0.0109x elapsed=0:00:46.01    \nframe=   32 fps=0.7 q=38.1 size=       0KiB time=00:00:00.50 bitrate=   0.7kbits/s speed=0.0107x elapsed=0:00:46.52    \nframe=   32 fps=0.7 q=38.1 size=       0KiB time=00:00:00.50 bitrate=   0.7kbits/s speed=0.0106x elapsed=0:00:47.04    \nframe=   32 fps=0.7 q=38.1 size=       0KiB time=00:00:00.50 bitrate=   0.7kbits/s speed=0.0105x elapsed=0:00:47.58    \nframe=   32 fps=0.7 q=38.1 size=       0KiB time=00:00:00.50 bitrate=   0.7kbits/s speed=0.0104x elapsed=0:00:48.13    \nframe=   32 fps=0.7 q=38.1 size=       0KiB time=00:00:00.50 bitrate=   0.7kbits/s speed=0.0103x elapsed=0:00:48.67    \nframe=   32 fps=0.6 q=38.1 size=       0KiB time=00:00:00.50 bitrate=   0.7kbits/s speed=0.0102x elapsed=0:00:49.25    \nframe=   33 fps=0.7 q=44.2 size=       0KiB time=00:00:00.51 bitrate=   0.7kbits/s speed=0.0104x elapsed=0:00:49.84    \nframe=   33 fps=0.7 q=44.2 size=       0KiB time=00:00:00.51 bitrate=   0.7kbits/s speed=0.0103x elapsed=0:00:50.39    \nframe=   34 fps=0.7 q=45.4 size=       0KiB time=00:00:00.53 bitrate=   0.7kbits/s speed=0.0105x elapsed=0:00:50.93    \nframe=   34 fps=0.7 q=45.4 size=       0KiB time=00:00:00.53 bitrate=   0.7kbits/s speed=0.0104x elapsed=0:00:51.47    \nframe=   34 fps=0.7 q=45.4 size=       0KiB time=00:00:00.53 bitrate=   0.7kbits/s speed=0.0103x elapsed=0:00:52.01    \nframe=   34 fps=0.6 q=45.4 size=       0KiB time=00:00:00.53 bitrate=   0.7kbits/s speed=0.0101x elapsed=0:00:52.57    \nframe=   34 fps=0.6 q=45.4 size=       0KiB time=00:00:00.53 bitrate=   0.7kbits/s speed=0.01x elapsed=0:00:53.13    \nframe=   34 fps=0.6 q=45.4 size=       0KiB time=00:00:00.53 bitrate=   0.7kbits/s speed=0.00991x elapsed=0:00:53.79    \nframe=   36 fps=0.7 q=44.6 size=       0KiB time=00:00:00.55 bitrate=   0.6kbits/s speed=0.0101x elapsed=0:00:54.41    \nframe=   36 fps=0.7 q=44.6 size=       0KiB time=00:00:00.56 bitrate=   0.6kbits/s speed=0.0103x elapsed=0:00:55.07    \nframe=   36 fps=0.6 q=44.6 size=       0KiB time=00:00:00.56 bitrate=   0.6kbits/s speed=0.0102x elapsed=0:00:55.71    \nframe=   36 fps=0.6 q=44.6 size=       0KiB time=00:00:00.56 bitrate=   0.6kbits/s speed=0.0101x elapsed=0:00:56.34    \nframe=   36 fps=0.6 q=44.6 size=       0KiB time=00:00:00.56 bitrate=   0.6kbits/s speed=0.00995x elapsed=0:00:56.97    \nframe=   36 fps=0.6 q=44.6 size=       0KiB time=00:00:00.56 bitrate=   0.6kbits/s speed=0.00983x elapsed=0:00:57.63    \nframe=   36 fps=0.6 q=44.6 size=       0KiB time=00:00:00.56 bitrate=   0.6kbits/s speed=0.00971x elapsed=0:00:58.37    \nframe=   36 fps=0.6 q=44.6 size=       0KiB time=00:00:00.56 bitrate=   0.6kbits/s speed=0.00962x elapsed=0:00:58.92    \nframe=   37 fps=0.6 q=38.1 size=       0KiB time=00:00:00.58 bitrate=   0.6kbits/s speed=0.0098x elapsed=0:00:59.54    \nframe=   37 fps=0.6 q=38.1 size=       0KiB time=00:00:00.58 bitrate=   0.6kbits/s speed=0.0097x elapsed=0:01:00.13    \nframe=   37 fps=0.6 q=38.1 size=       0KiB time=00:00:00.58 bitrate=   0.6kbits/s speed=0.0096x elapsed=0:01:00.74    \nframe=   37 fps=0.6 q=38.1 size=       0KiB time=00:00:00.58 bitrate=   0.6kbits/s speed=0.00951x elapsed=0:01:01.36    \nframe=   37 fps=0.6 q=38.1 size=       0KiB time=00:00:00.58 bitrate=   0.6kbits/s speed=0.00942x elapsed=0:01:01.91    \nframe=   38 fps=0.6 q=44.1 size=       0KiB time=00:00:00.60 bitrate=   0.6kbits/s speed=0.0096x elapsed=0:01:02.50    \nframe=   38 fps=0.6 q=44.1 size=       0KiB time=00:00:00.60 bitrate=   0.6kbits/s speed=0.00951x elapsed=0:01:03.08    \nframe=   38 fps=0.6 q=44.1 size=       0KiB time=00:00:00.60 bitrate=   0.6kbits/s speed=0.00943x elapsed=0:01:03.65    \nframe=   38 fps=0.6 q=44.1 size=       0KiB time=00:00:00.60 bitrate=   0.6kbits/s speed=0.00934x elapsed=0:01:04.26    \nframe=   39 fps=0.6 q=44.9 size=       0KiB time=00:00:00.61 bitrate=   0.6kbits/s speed=0.00951x elapsed=0:01:04.81    \nframe=   39 fps=0.6 q=44.9 size=       0KiB time=00:00:00.61 bitrate=   0.6kbits/s speed=0.00944x elapsed=0:01:05.35    \nframe=   39 fps=0.6 q=44.9 size=       0KiB time=00:00:00.61 bitrate=   0.6kbits/s speed=0.00936x elapsed=0:01:05.87    \nframe=   39 fps=0.6 q=44.9 size=       0KiB time=00:00:00.61 bitrate=   0.6kbits/s speed=0.00929x elapsed=0:01:06.39    \nframe=   39 fps=0.6 q=44.9 size=       0KiB time=00:00:00.61 bitrate=   0.6kbits/s speed=0.00921x elapsed=0:01:06.92    \nframe=   40 fps=0.6 q=44.6 size=       0KiB time=00:00:00.63 bitrate=   0.6kbits/s speed=0.00939x elapsed=0:01:07.44    \nframe=   40 fps=0.6 q=44.6 size=       0KiB time=00:00:00.63 bitrate=   0.6kbits/s speed=0.00932x elapsed=0:01:07.98    \nframe=   40 fps=0.6 q=44.6 size=       0KiB time=00:00:00.63 bitrate=   0.6kbits/s speed=0.00924x elapsed=0:01:08.57    \nframe=   40 fps=0.6 q=44.6 size=       0KiB time=00:00:00.63 bitrate=   0.6kbits/s speed=0.00916x elapsed=0:01:09.13    \nframe=   41 fps=0.6 q=44.5 size=       0KiB time=00:00:00.65 bitrate=   0.5kbits/s speed=0.00933x elapsed=0:01:09.64    \nframe=   41 fps=0.6 q=44.5 size=       0KiB time=00:00:00.65 bitrate=   0.5kbits/s speed=0.00926x elapsed=0:01:10.17    \nframe=   41 fps=0.6 q=44.5 size=       0KiB time=00:00:00.65 bitrate=   0.5kbits/s speed=0.00919x elapsed=0:01:10.73    \nframe=   42 fps=0.6 q=37.5 size=       0KiB time=00:00:00.66 bitrate=   0.5kbits/s speed=0.00935x elapsed=0:01:11.30    \nframe=   43 fps=0.6 q=43.7 size=       0KiB time=00:00:00.68 bitrate=   0.5kbits/s speed=0.00951x elapsed=0:01:11.82    \nframe=   44 fps=0.6 q=44.6 size=       0KiB time=00:00:00.70 bitrate=   0.5kbits/s speed=0.00968x elapsed=0:01:12.34    \nframe=   44 fps=0.6 q=44.6 size=       0KiB time=00:00:00.70 bitrate=   0.5kbits/s speed=0.00959x elapsed=0:01:12.96    \nframe=   44 fps=0.6 q=44.6 size=       0KiB time=00:00:00.70 bitrate=   0.5kbits/s speed=0.00952x elapsed=0:01:13.49    \nframe=   44 fps=0.6 q=44.6 size=       0KiB time=00:00:00.70 bitrate=   0.5kbits/s speed=0.00946x elapsed=0:01:14.03    \nframe=   44 fps=0.6 q=44.6 size=       0KiB time=00:00:00.70 bitrate=   0.5kbits/s speed=0.00938x elapsed=0:01:14.63    \nframe=   45 fps=0.6 q=44.4 size=       0KiB time=00:00:00.71 bitrate=   0.5kbits/s speed=0.00953x elapsed=0:01:15.19    \nframe=   46 fps=0.6 q=44.4 size=       0KiB time=00:00:00.73 bitrate=   0.5kbits/s speed=0.00968x elapsed=0:01:15.73    \nframe=   46 fps=0.6 q=44.4 size=       0KiB time=00:00:00.73 bitrate=   0.5kbits/s speed=0.00962x elapsed=0:01:16.26    \nframe=   46 fps=0.6 q=44.4 size=       0KiB time=00:00:00.73 bitrate=   0.5kbits/s speed=0.00954x elapsed=0:01:16.84    \nframe=   47 fps=0.6 q=37.7 size=       0KiB time=00:00:00.75 bitrate=   0.5kbits/s speed=0.00969x elapsed=0:01:17.40    \nframe=   47 fps=0.6 q=37.7 size=       0KiB time=00:00:00.75 bitrate=   0.5kbits/s speed=0.00962x elapsed=0:01:17.97    \nframe=   47 fps=0.6 q=37.7 size=       0KiB time=00:00:00.75 bitrate=   0.5kbits/s speed=0.00955x elapsed=0:01:18.52    \nframe=   47 fps=0.6 q=37.7 size=       0KiB time=00:00:00.75 bitrate=   0.5kbits/s speed=0.00949x elapsed=0:01:19.05    \nframe=   48 fps=0.6 q=43.5 size=     256KiB time=00:00:00.76 bitrate=2735.9kbits/s speed=0.00963x elapsed=0:01:19.59    \nframe=   48 fps=0.6 q=43.5 size=     256KiB time=00:00:00.76 bitrate=2735.9kbits/s speed=0.00957x elapsed=0:01:20.15    \nframe=   49 fps=0.6 q=44.4 size=     256KiB time=00:00:00.78 bitrate=2677.7kbits/s speed=0.0097x elapsed=0:01:20.72    \nframe=   50 fps=0.6 q=44.3 size=     256KiB time=00:00:00.78 bitrate=2677.7kbits/s speed=0.00964x elapsed=0:01:21.26    \nframe=   50 fps=0.6 q=44.3 size=     256KiB time=00:00:00.80 bitrate=2621.9kbits/s speed=0.00978x elapsed=0:01:21.77    \nframe=   50 fps=0.6 q=44.3 size=     256KiB time=00:00:00.80 bitrate=2621.9kbits/s speed=0.00972x elapsed=0:01:22.33    \nframe=   51 fps=0.6 q=44.4 size=     256KiB time=00:00:00.81 bitrate=2568.4kbits/s speed=0.00985x elapsed=0:01:22.87    \nframe=   51 fps=0.6 q=44.4 size=     256KiB time=00:00:00.81 bitrate=2568.4kbits/s speed=0.00979x elapsed=0:01:23.39    \nframe=   51 fps=0.6 q=44.4 size=     256KiB time=00:00:00.81 bitrate=2568.4kbits/s speed=0.00973x elapsed=0:01:23.91    \nframe=   52 fps=0.6 q=37.7 size=     256KiB time=00:00:00.83 bitrate=2517.0kbits/s speed=0.00987x elapsed=0:01:24.42    \nframe=   53 fps=0.6 q=43.4 size=     256KiB time=00:00:00.85 bitrate=2467.7kbits/s speed=0.01x elapsed=0:01:24.97    \nframe=   53 fps=0.6 q=43.4 size=     256KiB time=00:00:00.85 bitrate=2467.7kbits/s speed=0.00994x elapsed=0:01:25.49    \nframe=   53 fps=0.6 q=43.4 size=     256KiB time=00:00:00.85 bitrate=2467.7kbits/s speed=0.00988x elapsed=0:01:26.04    \nframe=   54 fps=0.6 q=44.6 size=     256KiB time=00:00:00.86 bitrate=2420.2kbits/s speed=0.01x elapsed=0:01:26.57    \nframe=   54 fps=0.6 q=44.6 size=     256KiB time=00:00:00.86 bitrate=2420.2kbits/s speed=0.00995x elapsed=0:01:27.12    \nframe=   54 fps=0.6 q=44.6 size=     256KiB time=00:00:00.86 bitrate=2420.2kbits/s speed=0.00989x elapsed=0:01:27.63    \nframe=   55 fps=0.6 q=44.0 size=     256KiB time=00:00:00.88 bitrate=2374.5kbits/s speed=0.01x elapsed=0:01:28.15    \nframe=   55 fps=0.6 q=44.0 size=     256KiB time=00:00:00.88 bitrate=2374.5kbits/s speed=0.00996x elapsed=0:01:28.70    \nframe=   56 fps=0.6 q=44.0 size=     256KiB time=00:00:00.90 bitrate=2330.6kbits/s speed=0.0101x elapsed=0:01:29.28    \nframe=   57 fps=0.6 q=38.0 size=     256KiB time=00:00:00.91 bitrate=2288.2kbits/s speed=0.0102x elapsed=0:01:29.79    \nframe=   57 fps=0.6 q=38.0 size=     256KiB time=00:00:00.91 bitrate=2288.2kbits/s speed=0.0101x elapsed=0:01:30.31    \nframe=   57 fps=0.6 q=38.0 size=     256KiB time=00:00:00.91 bitrate=2288.2kbits/s speed=0.0101x elapsed=0:01:30.84    \nframe=   58 fps=0.6 q=43.3 size=     256KiB time=00:00:00.93 bitrate=2247.3kbits/s speed=0.0102x elapsed=0:01:31.36    \nframe=   59 fps=0.6 q=44.3 size=     256KiB time=00:00:00.95 bitrate=2207.9kbits/s speed=0.0103x elapsed=0:01:31.93    \nframe=   59 fps=0.6 q=44.3 size=     256KiB time=00:00:00.95 bitrate=2207.9kbits/s speed=0.0103x elapsed=0:01:32.56    \nframe=   59 fps=0.6 q=44.3 size=     256KiB time=00:00:00.95 bitrate=2207.9kbits/s speed=0.0102x elapsed=0:01:33.15    \nframe=   59 fps=0.6 q=44.3 size=     256KiB time=00:00:00.95 bitrate=2207.9kbits/s speed=0.0101x elapsed=0:01:33.66    \nframe=   59 fps=0.6 q=44.3 size=     256KiB time=00:00:00.95 bitrate=2207.9kbits/s speed=0.0101x elapsed=0:01:34.19    \nframe=   59 fps=0.6 q=44.3 size=     256KiB time=00:00:00.95 bitrate=2207.9kbits/s speed=0.01x elapsed=0:01:34.74    \nframe=   59 fps=0.6 q=44.3 size=     256KiB time=00:00:00.95 bitrate=2207.9kbits/s speed=0.00996x elapsed=0:01:35.34    \nframe=   59 fps=0.6 q=44.3 size=     256KiB time=00:00:00.95 bitrate=2207.9kbits/s speed=0.00991x elapsed=0:01:35.85    \nframe=   59 fps=0.6 q=44.3 size=     256KiB time=00:00:00.95 bitrate=2207.9kbits/s speed=0.00985x elapsed=0:01:36.39    \nframe=   60 fps=0.6 q=43.8 size=     256KiB time=00:00:00.96 bitrate=2169.8kbits/s speed=0.00997x elapsed=0:01:36.96    \nframe=   61 fps=0.6 q=43.9 size=     256KiB time=00:00:00.98 bitrate=2133.1kbits/s speed=0.0101x elapsed=0:01:37.49    \nframe=   61 fps=0.6 q=43.9 size=     256KiB time=00:00:00.98 bitrate=2133.1kbits/s speed=0.01x elapsed=0:01:38.04    \nframe=   61 fps=0.6 q=43.9 size=     256KiB time=00:00:00.98 bitrate=2133.1kbits/s speed=0.00998x elapsed=0:01:38.57    \nframe=   61 fps=0.6 q=43.9 size=     256KiB time=00:00:00.98 bitrate=2133.1kbits/s speed=0.00992x elapsed=0:01:39.10    \nframe=   61 fps=0.6 q=43.9 size=     256KiB time=00:00:00.98 bitrate=2133.1kbits/s speed=0.00987x elapsed=0:01:39.65    \nframe=   61 fps=0.6 q=43.9 size=     256KiB time=00:00:00.98 bitrate=2133.1kbits/s speed=0.00981x elapsed=0:01:40.23    \nframe=   62 fps=0.6 q=37.8 size=     256KiB time=00:00:01.00 bitrate=2097.5kbits/s speed=0.00992x elapsed=0:01:40.76    \nframe=   62 fps=0.6 q=37.8 size=     256KiB time=00:00:01.00 bitrate=2097.5kbits/s speed=0.00987x elapsed=0:01:41.31    \nframe=   63 fps=0.6 q=43.1 size=     256KiB time=00:00:01.01 bitrate=2063.1kbits/s speed=0.00998x elapsed=0:01:41.85    \nframe=   64 fps=0.6 q=43.9 size=     256KiB time=00:00:01.03 bitrate=2029.8kbits/s speed=0.0101x elapsed=0:01:42.39    \nframe=   64 fps=0.6 q=43.9 size=     256KiB time=00:00:01.03 bitrate=2029.8kbits/s speed=0.01x elapsed=0:01:42.94    \nframe=   64 fps=0.6 q=43.9 size=     256KiB time=00:00:01.03 bitrate=2029.8kbits/s speed=0.00998x elapsed=0:01:43.51    \nframe=   64 fps=0.6 q=43.9 size=     256KiB time=00:00:01.03 bitrate=2029.8kbits/s speed=0.00993x elapsed=0:01:44.09    \nframe=   65 fps=0.6 q=43.6 size=     256KiB time=00:00:01.05 bitrate=1997.6kbits/s speed=0.01x elapsed=0:01:44.60    \nframe=   65 fps=0.6 q=43.6 size=     256KiB time=00:00:01.05 bitrate=1997.6kbits/s speed=0.00999x elapsed=0:01:45.15    \nframe=   65 fps=0.6 q=43.6 size=     256KiB time=00:00:01.05 bitrate=1997.6kbits/s speed=0.00993x elapsed=0:01:45.75    \nframe=   66 fps=0.6 q=43.7 size=     256KiB time=00:00:01.06 bitrate=1966.4kbits/s speed=0.01x elapsed=0:01:46.29    \nframe=   66 fps=0.6 q=43.7 size=     256KiB time=00:00:01.06 bitrate=1966.4kbits/s speed=0.00998x elapsed=0:01:46.82    \nframe=   66 fps=0.6 q=43.7 size=     256KiB time=00:00:01.06 bitrate=1966.4kbits/s speed=0.00993x elapsed=0:01:47.38    \nframe=   67 fps=0.6 q=37.9 size=     256KiB time=00:00:01.08 bitrate=1936.2kbits/s speed=0.01x elapsed=0:01:47.93    \nframe=   67 fps=0.6 q=37.9 size=     256KiB time=00:00:01.08 bitrate=1936.2kbits/s speed=0.00999x elapsed=0:01:48.46    \nframe=   67 fps=0.6 q=37.9 size=     256KiB time=00:00:01.08 bitrate=1936.2kbits/s speed=0.00994x elapsed=0:01:48.98    \nframe=   67 fps=0.6 q=37.9 size=     256KiB time=00:00:01.08 bitrate=1936.2kbits/s speed=0.00989x elapsed=0:01:49.51    \nframe=   68 fps=0.6 q=43.1 size=     256KiB time=00:00:01.10 bitrate=1906.8kbits/s speed=0.01x elapsed=0:01:50.02    \nframe=   68 fps=0.6 q=43.1 size=     256KiB time=00:00:01.10 bitrate=1906.8kbits/s speed=0.00995x elapsed=0:01:50.56    \nframe=   68 fps=0.6 q=43.1 size=     256KiB time=00:00:01.10 bitrate=1906.8kbits/s speed=0.0099x elapsed=0:01:51.12    \nframe=   69 fps=0.6 q=43.8 size=     256KiB time=00:00:01.11 bitrate=1878.4kbits/s speed=0.01x elapsed=0:01:51.68    \nframe=   69 fps=0.6 q=43.8 size=     256KiB time=00:00:01.11 bitrate=1878.4kbits/s speed=0.00995x elapsed=0:01:52.23    \nframe=   69 fps=0.6 q=43.8 size=     256KiB time=00:00:01.11 bitrate=1878.4kbits/s speed=0.0099x elapsed=0:01:52.79    \nframe=   69 fps=0.6 q=43.8 size=     256KiB time=00:00:01.11 bitrate=1878.4kbits/s speed=0.00985x elapsed=0:01:53.37    \nframe=   70 fps=0.6 q=43.7 size=     256KiB time=00:00:01.13 bitrate=1850.7kbits/s speed=0.00995x elapsed=0:01:53.90    \nframe=   70 fps=0.6 q=43.7 size=     256KiB time=00:00:01.13 bitrate=1850.7kbits/s speed=0.0099x elapsed=0:01:54.45    \nframe=   70 fps=0.6 q=43.7 size=     256KiB time=00:00:01.13 bitrate=1850.7kbits/s speed=0.00985x elapsed=0:01:55.04    \nframe=   71 fps=0.6 q=43.7 size=     256KiB time=00:00:01.15 bitrate=1823.9kbits/s speed=0.00994x elapsed=0:01:55.66    \nframe=   71 fps=0.6 q=43.7 size=     256KiB time=00:00:01.15 bitrate=1823.9kbits/s speed=0.0099x elapsed=0:01:56.19    \nframe=   71 fps=0.6 q=43.7 size=     256KiB time=00:00:01.15 bitrate=1823.9kbits/s speed=0.00985x elapsed=0:01:56.79    \nframe=   71 fps=0.6 q=43.7 size=     256KiB time=00:00:01.15 bitrate=1823.9kbits/s speed=0.00979x elapsed=0:01:57.50    \nframe=   71 fps=0.6 q=43.7 size=     256KiB time=00:00:01.15 bitrate=1823.9kbits/s speed=0.00973x elapsed=0:01:58.16    \nframe=   71 fps=0.6 q=43.7 size=     256KiB time=00:00:01.15 bitrate=1823.9kbits/s speed=0.00968x elapsed=0:01:58.75    \nframe=   71 fps=0.6 q=43.7 size=     256KiB time=00:00:01.15 bitrate=1823.9kbits/s speed=0.00964x elapsed=0:01:59.33    \nframe=   71 fps=0.6 q=43.7 size=     256KiB time=00:00:01.15 bitrate=1823.9kbits/s speed=0.00959x elapsed=0:01:59.91    \nframe=   71 fps=0.6 q=43.7 size=     256KiB time=00:00:01.15 bitrate=1823.9kbits/s speed=0.00954x elapsed=0:02:00.55    \nframe=   72 fps=0.6 q=37.0 size=     256KiB time=00:00:01.16 bitrate=1797.9kbits/s speed=0.00963x elapsed=0:02:01.20    \nframe=   72 fps=0.6 q=37.0 size=     256KiB time=00:00:01.16 bitrate=1797.9kbits/s speed=0.00958x elapsed=0:02:01.82    \nframe=   72 fps=0.6 q=37.0 size=     256KiB time=00:00:01.16 bitrate=1797.9kbits/s speed=0.00953x elapsed=0:02:02.45    \nframe=   72 fps=0.6 q=37.0 size=     256KiB time=00:00:01.16 bitrate=1797.9kbits/s speed=0.00949x elapsed=0:02:02.98    \nframe=   73 fps=0.6 q=42.7 size=     256KiB time=00:00:01.18 bitrate=1772.5kbits/s speed=0.00958x elapsed=0:02:03.50    \nframe=   73 fps=0.6 q=42.7 size=     256KiB time=00:00:01.18 bitrate=1772.5kbits/s speed=0.00954x elapsed=0:02:04.07    \nframe=   73 fps=0.6 q=42.7 size=     256KiB time=00:00:01.18 bitrate=1772.5kbits/s speed=0.00949x elapsed=0:02:04.64    \nframe=   75 fps=0.6 q=43.4 size=     256KiB time=00:00:01.21 bitrate=1724.0kbits/s speed=0.00972x elapsed=0:02:05.17    \nframe=   75 fps=0.6 q=43.4 size=     256KiB time=00:00:01.21 bitrate=1724.0kbits/s speed=0.00968x elapsed=0:02:05.75    \nframe=   75 fps=0.6 q=43.4 size=     256KiB time=00:00:01.21 bitrate=1724.0kbits/s speed=0.00964x elapsed=0:02:06.26    \nframe=   76 fps=0.6 q=43.4 size=     256KiB time=00:00:01.23 bitrate=1700.7kbits/s speed=0.00973x elapsed=0:02:06.79    \nframe=   77 fps=0.6 q=37.3 size=     256KiB time=00:00:01.25 bitrate=1678.0kbits/s speed=0.00982x elapsed=0:02:07.32    \nframe=   77 fps=0.6 q=37.3 size=     256KiB time=00:00:01.25 bitrate=1678.0kbits/s speed=0.00978x elapsed=0:02:07.85    \nframe=   77 fps=0.6 q=37.3 size=     256KiB time=00:00:01.25 bitrate=1678.0kbits/s speed=0.00974x elapsed=0:02:08.37    \nframe=   78 fps=0.6 q=42.7 size=     256KiB time=00:00:01.26 bitrate=1655.9kbits/s speed=0.00983x elapsed=0:02:08.89    \nframe=   79 fps=0.6 q=43.5 size=     256KiB time=00:00:01.28 bitrate=1634.4kbits/s speed=0.00991x elapsed=0:02:09.45    \nframe=   79 fps=0.6 q=43.5 size=     256KiB time=00:00:01.28 bitrate=1634.4kbits/s speed=0.00987x elapsed=0:02:09.96    \nframe=   80 fps=0.6 q=43.6 size=     256KiB time=00:00:01.30 bitrate=1613.5kbits/s speed=0.00996x elapsed=0:02:10.48    \nframe=   81 fps=0.6 q=43.5 size=     256KiB time=00:00:01.31 bitrate=1593.0kbits/s speed=0.0101x elapsed=0:02:11.01    \nframe=   82 fps=0.6 q=37.0 size=     256KiB time=00:00:01.33 bitrate=1573.1kbits/s speed=0.0101x elapsed=0:02:11.54    \nframe=   82 fps=0.6 q=37.0 size=     256KiB time=00:00:01.33 bitrate=1573.1kbits/s speed=0.0101x elapsed=0:02:12.07    \nframe=   84 fps=0.6 q=43.7 size=     256KiB time=00:00:01.36 bitrate=1534.8kbits/s speed=0.0103x elapsed=0:02:12.59    \nframe=   84 fps=0.6 q=43.7 size=     256KiB time=00:00:01.36 bitrate=1534.8kbits/s speed=0.0103x elapsed=0:02:13.11    \nframe=   85 fps=0.6 q=43.7 size=     256KiB time=00:00:01.38 bitrate=1516.3kbits/s speed=0.0104x elapsed=0:02:13.61    \nframe=   86 fps=0.6 q=43.7 size=     256KiB time=00:00:01.40 bitrate=1498.2kbits/s speed=0.0104x elapsed=0:02:14.13    \nframe=   87 fps=0.6 q=37.1 size=     256KiB time=00:00:01.41 bitrate=1480.6kbits/s speed=0.0105x elapsed=0:02:14.66    \nframe=   87 fps=0.6 q=37.1 size=     256KiB time=00:00:01.41 bitrate=1480.6kbits/s speed=0.0105x elapsed=0:02:15.21    \nframe=   88 fps=0.6 q=42.7 size=     256KiB time=00:00:01.43 bitrate=1463.4kbits/s speed=0.0106x elapsed=0:02:15.75    \nframe=   89 fps=0.7 q=43.9 size=     512KiB time=00:00:01.45 bitrate=2892.9kbits/s speed=0.0106x elapsed=0:02:16.27    \nframe=   89 fps=0.7 q=43.9 size=     512KiB time=00:00:01.45 bitrate=2892.9kbits/s speed=0.0106x elapsed=0:02:16.80    \nframe=   89 fps=0.6 q=43.9 size=     512KiB time=00:00:01.45 bitrate=2892.9kbits/s speed=0.0106x elapsed=0:02:17.34    \nframe=   90 fps=0.7 q=43.6 size=     512KiB time=00:00:01.46 bitrate=2860.0kbits/s speed=0.0106x elapsed=0:02:17.87    \nframe=   90 fps=0.7 q=43.6 size=     512KiB time=00:00:01.46 bitrate=2860.0kbits/s speed=0.0106x elapsed=0:02:18.39    \nframe=   91 fps=0.7 q=43.9 size=     512KiB time=00:00:01.48 bitrate=2827.9kbits/s speed=0.0107x elapsed=0:02:18.91    \nframe=   91 fps=0.7 q=43.9 size=     512KiB time=00:00:01.48 bitrate=2827.9kbits/s speed=0.0106x elapsed=0:02:19.45    \nframe=   92 fps=0.7 q=36.7 size=     512KiB time=00:00:01.50 bitrate=2796.4kbits/s speed=0.0107x elapsed=0:02:19.97    \nframe=   94 fps=0.7 q=43.9 size=     512KiB time=00:00:01.53 bitrate=2735.6kbits/s speed=0.0109x elapsed=0:02:20.49    \nframe=   94 fps=0.7 q=43.9 size=     512KiB time=00:00:01.53 bitrate=2735.6kbits/s speed=0.0109x elapsed=0:02:21.03    \nframe=   94 fps=0.7 q=43.9 size=     512KiB time=00:00:01.53 bitrate=2735.6kbits/s speed=0.0108x elapsed=0:02:21.56    \nframe=   95 fps=0.7 q=43.7 size=     512KiB time=00:00:01.55 bitrate=2706.2kbits/s speed=0.0109x elapsed=0:02:22.07    \nframe=   96 fps=0.7 q=44.1 size=     512KiB time=00:00:01.55 bitrate=2706.2kbits/s speed=0.0109x elapsed=0:02:22.59    \nframe=   97 fps=0.7 q=37.4 size=     512KiB time=00:00:01.58 bitrate=2649.3kbits/s speed=0.0111x elapsed=0:02:23.14    \nframe=   97 fps=0.7 q=37.4 size=     512KiB time=00:00:01.58 bitrate=2649.3kbits/s speed=0.011x elapsed=0:02:23.66    \nframe=   98 fps=0.7 q=42.8 size=     512KiB time=00:00:01.60 bitrate=2621.7kbits/s speed=0.0111x elapsed=0:02:24.20    \nframe=   98 fps=0.7 q=42.8 size=     512KiB time=00:00:01.60 bitrate=2621.7kbits/s speed=0.0111x elapsed=0:02:24.73    \nframe=   99 fps=0.7 q=43.8 size=     512KiB time=00:00:01.61 bitrate=2594.6kbits/s speed=0.0111x elapsed=0:02:25.26    \nframe=  100 fps=0.7 q=43.8 size=     512KiB time=00:00:01.63 bitrate=2568.2kbits/s speed=0.0112x elapsed=0:02:25.88    \nframe=  100 fps=0.7 q=43.8 size=     512KiB time=00:00:01.63 bitrate=2568.2kbits/s speed=0.0112x elapsed=0:02:26.45    \nframe=  100 fps=0.7 q=43.8 size=     512KiB time=00:00:01.63 bitrate=2568.2kbits/s speed=0.0111x elapsed=0:02:27.01    \nframe=  100 fps=0.7 q=43.8 size=     512KiB time=00:00:01.63 bitrate=2568.2kbits/s speed=0.0111x elapsed=0:02:27.58    \nframe=  100 fps=0.7 q=43.8 size=     512KiB time=00:00:01.63 bitrate=2568.2kbits/s speed=0.011x elapsed=0:02:28.10    \nframe=  100 fps=0.7 q=43.8 size=     512KiB time=00:00:01.63 bitrate=2568.2kbits/s speed=0.011x elapsed=0:02:28.62    \nframe=  100 fps=0.7 q=43.8 size=     512KiB time=00:00:01.63 bitrate=2568.2kbits/s speed=0.0109x elapsed=0:02:29.16    \nframe=  101 fps=0.7 q=43.9 size=     512KiB time=00:00:01.65 bitrate=2542.2kbits/s speed=0.011x elapsed=0:02:29.71    \nframe=  101 fps=0.7 q=43.9 size=     512KiB time=00:00:01.65 bitrate=2542.2kbits/s speed=0.011x elapsed=0:02:30.27    \nframe=  101 fps=0.7 q=43.9 size=     512KiB time=00:00:01.65 bitrate=2542.2kbits/s speed=0.0109x elapsed=0:02:30.79    \nframe=  102 fps=0.7 q=37.2 size=     512KiB time=00:00:01.66 bitrate=2516.8kbits/s speed=0.011x elapsed=0:02:31.33    \nframe=  102 fps=0.7 q=37.2 size=     512KiB time=00:00:01.66 bitrate=2516.8kbits/s speed=0.011x elapsed=0:02:31.86    \nframe=  102 fps=0.7 q=37.2 size=     512KiB time=00:00:01.66 bitrate=2516.8kbits/s speed=0.0109x elapsed=0:02:32.39    \nframe=  102 fps=0.7 q=37.2 size=     512KiB time=00:00:01.66 bitrate=2516.8kbits/s speed=0.0109x elapsed=0:02:32.94    \nframe=  102 fps=0.7 q=37.2 size=     512KiB time=00:00:01.66 bitrate=2516.8kbits/s speed=0.0109x elapsed=0:02:33.46    \nframe=  102 fps=0.7 q=37.2 size=     512KiB time=00:00:01.66 bitrate=2516.8kbits/s speed=0.0108x elapsed=0:02:34.00    \nframe=  102 fps=0.7 q=37.2 size=     512KiB time=00:00:01.66 bitrate=2516.8kbits/s speed=0.0108x elapsed=0:02:34.53    \nframe=  103 fps=0.7 q=42.6 size=     512KiB time=00:00:01.68 bitrate=2491.9kbits/s speed=0.0109x elapsed=0:02:35.04    \nframe=  103 fps=0.7 q=42.6 size=     512KiB time=00:00:01.68 bitrate=2491.9kbits/s speed=0.0108x elapsed=0:02:35.56    \nframe=  103 fps=0.7 q=42.6 size=     512KiB time=00:00:01.68 bitrate=2491.9kbits/s speed=0.0108x elapsed=0:02:36.10    \nframe=  103 fps=0.7 q=42.6 size=     512KiB time=00:00:01.68 bitrate=2491.9kbits/s speed=0.0107x elapsed=0:02:36.62    \nframe=  103 fps=0.7 q=42.6 size=     512KiB time=00:00:01.68 bitrate=2491.9kbits/s speed=0.0107x elapsed=0:02:37.15    \nframe=  104 fps=0.7 q=43.9 size=     512KiB time=00:00:01.70 bitrate=2467.4kbits/s speed=0.0108x elapsed=0:02:37.69    \nframe=  104 fps=0.7 q=43.9 size=     512KiB time=00:00:01.70 bitrate=2467.4kbits/s speed=0.0107x elapsed=0:02:38.23    \nframe=  104 fps=0.7 q=43.9 size=     512KiB time=00:00:01.70 bitrate=2467.4kbits/s speed=0.0107x elapsed=0:02:38.78    \nframe=  104 fps=0.7 q=43.9 size=     512KiB time=00:00:01.70 bitrate=2467.4kbits/s speed=0.0107x elapsed=0:02:39.30    \nframe=  104 fps=0.7 q=43.9 size=     512KiB time=00:00:01.70 bitrate=2467.4kbits/s speed=0.0106x elapsed=0:02:39.83    \nframe=  104 fps=0.6 q=43.9 size=     512KiB time=00:00:01.70 bitrate=2467.4kbits/s speed=0.0106x elapsed=0:02:40.35    \nframe=  105 fps=0.7 q=43.8 size=     512KiB time=00:00:01.71 bitrate=2443.5kbits/s speed=0.0107x elapsed=0:02:40.88    \nframe=  106 fps=0.7 q=43.6 size=     512KiB time=00:00:01.73 bitrate=2420.0kbits/s speed=0.0107x elapsed=0:02:41.44    \nframe=  107 fps=0.7 q=37.2 size=     512KiB time=00:00:01.75 bitrate=2396.9kbits/s speed=0.0108x elapsed=0:02:41.98    \nframe=  107 fps=0.7 q=37.2 size=     512KiB time=00:00:01.75 bitrate=2396.9kbits/s speed=0.0108x elapsed=0:02:42.51    \nframe=  107 fps=0.7 q=37.2 size=     512KiB time=00:00:01.75 bitrate=2396.9kbits/s speed=0.0107x elapsed=0:02:43.05    \nframe=  108 fps=0.7 q=42.8 size=     512KiB time=00:00:01.76 bitrate=2374.3kbits/s speed=0.0108x elapsed=0:02:43.60    \nframe=  108 fps=0.7 q=42.8 size=     512KiB time=00:00:01.76 bitrate=2374.3kbits/s speed=0.0108x elapsed=0:02:44.13    \nframe=  109 fps=0.7 q=43.9 size=     512KiB time=00:00:01.78 bitrate=2352.1kbits/s speed=0.0108x elapsed=0:02:44.69    \nframe=  109 fps=0.7 q=43.9 size=     512KiB time=00:00:01.78 bitrate=2352.1kbits/s speed=0.0108x elapsed=0:02:45.23    \nframe=  109 fps=0.7 q=43.9 size=     512KiB time=00:00:01.78 bitrate=2352.1kbits/s speed=0.0108x elapsed=0:02:45.79    \nframe=  109 fps=0.7 q=43.9 size=     512KiB time=00:00:01.78 bitrate=2352.1kbits/s speed=0.0107x elapsed=0:02:46.31    \nframe=  110 fps=0.7 q=43.8 size=     512KiB time=00:00:01.80 bitrate=2330.4kbits/s speed=0.0108x elapsed=0:02:46.85    \nframe=  110 fps=0.7 q=43.8 size=     512KiB time=00:00:01.80 bitrate=2330.4kbits/s speed=0.0108x elapsed=0:02:47.41    \nframe=  110 fps=0.7 q=43.8 size=     512KiB time=00:00:01.80 bitrate=2330.4kbits/s speed=0.0107x elapsed=0:02:47.99    \nframe=  111 fps=0.7 q=43.9 size=     512KiB time=00:00:01.81 bitrate=2309.0kbits/s speed=0.0108x elapsed=0:02:48.53    \nframe=  111 fps=0.7 q=43.9 size=     512KiB time=00:00:01.81 bitrate=2309.0kbits/s speed=0.0107x elapsed=0:02:49.06    \nframe=  111 fps=0.7 q=43.9 size=     512KiB time=00:00:01.81 bitrate=2309.0kbits/s speed=0.0107x elapsed=0:02:49.58    \nframe=  111 fps=0.7 q=43.9 size=     512KiB time=00:00:01.81 bitrate=2309.0kbits/s speed=0.0107x elapsed=0:02:50.13    \nframe=  111 fps=0.7 q=43.9 size=     512KiB time=00:00:01.81 bitrate=2309.0kbits/s speed=0.0106x elapsed=0:02:50.71    \nframe=  111 fps=0.6 q=43.9 size=     512KiB time=00:00:01.81 bitrate=2309.0kbits/s speed=0.0106x elapsed=0:02:51.25    \nframe=  112 fps=0.7 q=37.1 size=     512KiB time=00:00:01.83 bitrate=2288.0kbits/s speed=0.0107x elapsed=0:02:51.81    \nframe=  112 fps=0.6 q=37.1 size=     512KiB time=00:00:01.83 bitrate=2288.0kbits/s speed=0.0106x elapsed=0:02:52.32    \nframe=  112 fps=0.6 q=37.1 size=     512KiB time=00:00:01.83 bitrate=2288.0kbits/s speed=0.0106x elapsed=0:02:52.87    \nframe=  112 fps=0.6 q=37.1 size=     512KiB time=00:00:01.83 bitrate=2288.0kbits/s speed=0.0106x elapsed=0:02:53.41    \nframe=  112 fps=0.6 q=37.1 size=     512KiB time=00:00:01.83 bitrate=2288.0kbits/s speed=0.0105x elapsed=0:02:54.00    \nframe=  113 fps=0.6 q=42.7 size=     512KiB time=00:00:01.85 bitrate=2267.4kbits/s speed=0.0106x elapsed=0:02:54.55    \nframe=  114 fps=0.7 q=43.9 size=     512KiB time=00:00:01.86 bitrate=2247.1kbits/s speed=0.0107x elapsed=0:02:55.09    \nframe=  114 fps=0.6 q=43.9 size=     512KiB time=00:00:01.86 bitrate=2247.1kbits/s speed=0.0106x elapsed=0:02:55.67    \nframe=  114 fps=0.6 q=43.9 size=     512KiB time=00:00:01.86 bitrate=2247.1kbits/s speed=0.0106x elapsed=0:02:56.21    \nframe=  114 fps=0.6 q=43.9 size=     512KiB time=00:00:01.86 bitrate=2247.1kbits/s speed=0.0106x elapsed=0:02:56.73    \nframe=  115 fps=0.6 q=43.8 size=     512KiB time=00:00:01.88 bitrate=2227.3kbits/s speed=0.0106x elapsed=0:02:57.26    \nframe=  115 fps=0.6 q=43.8 size=     512KiB time=00:00:01.88 bitrate=2227.3kbits/s speed=0.0106x elapsed=0:02:57.82    \nframe=  115 fps=0.6 q=43.8 size=     512KiB time=00:00:01.88 bitrate=2227.3kbits/s speed=0.0106x elapsed=0:02:58.37    \nframe=  116 fps=0.6 q=43.7 size=     512KiB time=00:00:01.90 bitrate=2207.7kbits/s speed=0.0106x elapsed=0:02:58.89    \nframe=  117 fps=0.7 q=37.0 size=     512KiB time=00:00:01.91 bitrate=2188.5kbits/s speed=0.0107x elapsed=0:02:59.39    \nframe=  117 fps=0.7 q=37.0 size=     512KiB time=00:00:01.91 bitrate=2188.5kbits/s speed=0.0107x elapsed=0:02:59.92    \nframe=  118 fps=0.7 q=42.7 size=     512KiB time=00:00:01.93 bitrate=2169.7kbits/s speed=0.0107x elapsed=0:03:00.46    \nframe=  118 fps=0.7 q=42.7 size=     512KiB time=00:00:01.93 bitrate=2169.7kbits/s speed=0.0107x elapsed=0:03:01.01    \nframe=  118 fps=0.6 q=42.7 size=     512KiB time=00:00:01.93 bitrate=2169.7kbits/s speed=0.0106x elapsed=0:03:01.57    \nframe=  118 fps=0.6 q=42.7 size=     512KiB time=00:00:01.93 bitrate=2169.7kbits/s speed=0.0106x elapsed=0:03:02.12    \nframe=  118 fps=0.6 q=42.7 size=     512KiB time=00:00:01.93 bitrate=2169.7kbits/s speed=0.0106x elapsed=0:03:02.69    \nframe=  118 fps=0.6 q=42.7 size=     512KiB time=00:00:01.93 bitrate=2169.7kbits/s speed=0.0106x elapsed=0:03:03.25    \nframe=  118 fps=0.6 q=42.7 size=     512KiB time=00:00:01.93 bitrate=2169.7kbits/s speed=0.0105x elapsed=0:03:03.82    \nframe=  118 fps=0.6 q=42.7 size=     512KiB time=00:00:01.93 bitrate=2169.7kbits/s speed=0.0105x elapsed=0:03:04.42    \nframe=  119 fps=0.6 q=43.9 size=     512KiB time=00:00:01.95 bitrate=2151.1kbits/s speed=0.0105x elapsed=0:03:04.97    \nframe=  119 fps=0.6 q=43.9 size=     512KiB time=00:00:01.95 bitrate=2151.1kbits/s speed=0.0105x elapsed=0:03:05.53    \nframe=  120 fps=0.6 q=43.8 size=     512KiB time=00:00:01.96 bitrate=2132.9kbits/s speed=0.0106x elapsed=0:03:06.10    \nframe=  120 fps=0.6 q=43.8 size=     512KiB time=00:00:01.96 bitrate=2132.9kbits/s speed=0.0105x elapsed=0:03:06.62    \nframe=  120 fps=0.6 q=43.8 size=     512KiB time=00:00:01.96 bitrate=2132.9kbits/s speed=0.0105x elapsed=0:03:07.20    \nframe=  121 fps=0.6 q=43.9 size=     512KiB time=00:00:01.98 bitrate=2115.0kbits/s speed=0.0106x elapsed=0:03:07.71    \nframe=  121 fps=0.6 q=43.9 size=     512KiB time=00:00:01.98 bitrate=2115.0kbits/s speed=0.0105x elapsed=0:03:08.24    \nframe=  121 fps=0.6 q=43.9 size=     512KiB time=00:00:01.98 bitrate=2115.0kbits/s speed=0.0105x elapsed=0:03:08.78    \nframe=  121 fps=0.6 q=43.9 size=     512KiB time=00:00:01.98 bitrate=2115.0kbits/s speed=0.0105x elapsed=0:03:09.37    \nframe=  122 fps=0.6 q=36.7 size=     512KiB time=00:00:02.00 bitrate=2097.3kbits/s speed=0.0105x elapsed=0:03:09.98    \nframe=  123 fps=0.6 q=42.8 size=     512KiB time=00:00:02.01 bitrate=2080.0kbits/s speed=0.0106x elapsed=0:03:10.60    \nframe=  123 fps=0.6 q=42.8 size=     512KiB time=00:00:02.01 bitrate=2080.0kbits/s speed=0.0105x elapsed=0:03:11.24    \nframe=  123 fps=0.6 q=42.8 size=     512KiB time=00:00:02.01 bitrate=2080.0kbits/s speed=0.0105x elapsed=0:03:11.80    \nframe=  124 fps=0.6 q=44.0 size=     512KiB time=00:00:02.03 bitrate=2062.9kbits/s speed=0.0106x elapsed=0:03:12.33    \nframe=  125 fps=0.6 q=43.8 size=     512KiB time=00:00:02.05 bitrate=2046.2kbits/s speed=0.0106x elapsed=0:03:12.86    \nframe=  125 fps=0.6 q=43.8 size=     512KiB time=00:00:02.05 bitrate=2046.2kbits/s speed=0.0106x elapsed=0:03:13.39    \nframe=  125 fps=0.6 q=43.8 size=     512KiB time=00:00:02.05 bitrate=2046.2kbits/s speed=0.0106x elapsed=0:03:13.92    \nframe=  125 fps=0.6 q=43.8 size=     512KiB time=00:00:02.05 bitrate=2046.2kbits/s speed=0.0105x elapsed=0:03:14.46    \nframe=  126 fps=0.6 q=43.8 size=     512KiB time=00:00:02.06 bitrate=2029.7kbits/s speed=0.0106x elapsed=0:03:14.99    \nframe=  126 fps=0.6 q=43.8 size=     512KiB time=00:00:02.06 bitrate=2029.7kbits/s speed=0.0106x elapsed=0:03:15.50    \nframe=  126 fps=0.6 q=43.8 size=     512KiB time=00:00:02.06 bitrate=2029.7kbits/s speed=0.0105x elapsed=0:03:16.03    \nframe=  128 fps=0.7 q=42.6 size=     512KiB time=00:00:02.10 bitrate=1997.5kbits/s speed=0.0107x elapsed=0:03:16.54    \nframe=  128 fps=0.6 q=42.6 size=     512KiB time=00:00:02.10 bitrate=1997.5kbits/s speed=0.0107x elapsed=0:03:17.06    \nframe=  129 fps=0.7 q=43.8 size=     512KiB time=00:00:02.11 bitrate=1981.7kbits/s speed=0.0107x elapsed=0:03:17.60    \nframe=  130 fps=0.7 q=43.2 size=     512KiB time=00:00:02.13 bitrate=1966.2kbits/s speed=0.0108x elapsed=0:03:18.13    \nframe=  131 fps=0.7 q=43.4 size=     512KiB time=00:00:02.15 bitrate=1951.0kbits/s speed=0.0108x elapsed=0:03:18.65    \nframe=  132 fps=0.7 q=36.6 size=     768KiB time=00:00:02.16 bitrate=2903.9kbits/s speed=0.0109x elapsed=0:03:19.20    \nframe=  133 fps=0.7 q=42.2 size=     768KiB time=00:00:02.18 bitrate=2881.7kbits/s speed=0.0109x elapsed=0:03:19.74    \nframe=  134 fps=0.7 q=43.4 size=     768KiB time=00:00:02.20 bitrate=2859.9kbits/s speed=0.011x elapsed=0:03:20.26    \nframe=  135 fps=0.7 q=43.5 size=     768KiB time=00:00:02.21 bitrate=2838.4kbits/s speed=0.011x elapsed=0:03:20.78    \nframe=  135 fps=0.7 q=43.5 size=     768KiB time=00:00:02.21 bitrate=2838.4kbits/s speed=0.011x elapsed=0:03:21.28    \nframe=  136 fps=0.7 q=43.4 size=     768KiB time=00:00:02.23 bitrate=2817.2kbits/s speed=0.0111x elapsed=0:03:21.80    \nframe=  136 fps=0.7 q=43.4 size=     768KiB time=00:00:02.23 bitrate=2817.2kbits/s speed=0.011x elapsed=0:03:22.33    \nframe=  137 fps=0.7 q=36.7 size=     768KiB time=00:00:02.25 bitrate=2796.4kbits/s speed=0.0111x elapsed=0:03:22.88    \nframe=  137 fps=0.7 q=36.7 size=     768KiB time=00:00:02.25 bitrate=2796.4kbits/s speed=0.0111x elapsed=0:03:23.45    \nframe=  138 fps=0.7 q=42.4 size=     768KiB time=00:00:02.26 bitrate=2775.8kbits/s speed=0.0111x elapsed=0:03:23.98    \nframe=  138 fps=0.7 q=42.4 size=     768KiB time=00:00:02.26 bitrate=2775.8kbits/s speed=0.0111x elapsed=0:03:24.49    \nframe=  139 fps=0.7 q=43.6 size=     768KiB time=00:00:02.28 bitrate=2755.5kbits/s speed=0.0111x elapsed=0:03:25.01    \nframe=  139 fps=0.7 q=43.6 size=     768KiB time=00:00:02.28 bitrate=2755.5kbits/s speed=0.0111x elapsed=0:03:25.53    \nframe=  140 fps=0.7 q=43.3 size=     768KiB time=00:00:02.30 bitrate=2735.6kbits/s speed=0.0112x elapsed=0:03:26.05    \nframe=  141 fps=0.7 q=43.2 size=     768KiB time=00:00:02.31 bitrate=2715.9kbits/s speed=0.0112x elapsed=0:03:26.58    \nframe=  141 fps=0.7 q=43.2 size=     768KiB time=00:00:02.31 bitrate=2715.9kbits/s speed=0.0112x elapsed=0:03:27.13    \nframe=  143 fps=0.7 q=42.4 size=     768KiB time=00:00:02.33 bitrate=2696.5kbits/s speed=0.0112x elapsed=0:03:27.68    \nframe=  144 fps=0.7 q=43.5 size=     768KiB time=00:00:02.36 bitrate=2658.5kbits/s speed=0.0114x elapsed=0:03:28.21    \nframe=  144 fps=0.7 q=43.5 size=     768KiB time=00:00:02.36 bitrate=2658.5kbits/s speed=0.0113x elapsed=0:03:28.72    \nframe=  145 fps=0.7 q=43.2 size=     768KiB time=00:00:02.38 bitrate=2639.9kbits/s speed=0.0114x elapsed=0:03:29.25    \nframe=  145 fps=0.7 q=43.2 size=     768KiB time=00:00:02.38 bitrate=2639.9kbits/s speed=0.0114x elapsed=0:03:29.80    \nframe=  146 fps=0.7 q=43.5 size=     768KiB time=00:00:02.40 bitrate=2621.6kbits/s speed=0.0114x elapsed=0:03:30.32    \nframe=  147 fps=0.7 q=37.1 size=     768KiB time=00:00:02.41 bitrate=2603.5kbits/s speed=0.0115x elapsed=0:03:30.87    \nframe=  148 fps=0.7 q=42.5 size=     768KiB time=00:00:02.43 bitrate=2585.7kbits/s speed=0.0115x elapsed=0:03:31.41    \nframe=  149 fps=0.7 q=43.8 size=     768KiB time=00:00:02.45 bitrate=2568.1kbits/s speed=0.0116x elapsed=0:03:31.96    \nframe=  150 fps=0.7 q=43.5 size=     768KiB time=00:00:02.46 bitrate=2550.7kbits/s speed=0.0116x elapsed=0:03:32.47    \nframe=  150 fps=0.7 q=43.5 size=     768KiB time=00:00:02.46 bitrate=2550.7kbits/s speed=0.0116x elapsed=0:03:33.01    \nframe=  151 fps=0.7 q=43.7 size=     768KiB time=00:00:02.48 bitrate=2533.6kbits/s speed=0.0116x elapsed=0:03:33.54    \nframe=  151 fps=0.7 q=43.7 size=     768KiB time=00:00:02.48 bitrate=2533.6kbits/s speed=0.0116x elapsed=0:03:34.08    \nframe=  152 fps=0.7 q=36.8 size=     768KiB time=00:00:02.50 bitrate=2516.7kbits/s speed=0.0116x elapsed=0:03:34.63    \nframe=  152 fps=0.7 q=36.8 size=     768KiB time=00:00:02.50 bitrate=2516.7kbits/s speed=0.0116x elapsed=0:03:35.29    \nframe=  152 fps=0.7 q=36.8 size=     768KiB time=00:00:02.50 bitrate=2516.7kbits/s speed=0.0116x elapsed=0:03:35.85    \nframe=  152 fps=0.7 q=36.8 size=     768KiB time=00:00:02.50 bitrate=2516.7kbits/s speed=0.0116x elapsed=0:03:36.37    \nframe=  152 fps=0.7 q=36.8 size=     768KiB time=00:00:02.50 bitrate=2516.7kbits/s speed=0.0115x elapsed=0:03:36.95    \nframe=  153 fps=0.7 q=42.3 size=     768KiB time=00:00:02.51 bitrate=2500.1kbits/s speed=0.0116x elapsed=0:03:37.47    \nframe=  153 fps=0.7 q=42.3 size=     768KiB time=00:00:02.51 bitrate=2500.1kbits/s speed=0.0115x elapsed=0:03:38.00    \nframe=  154 fps=0.7 q=43.6 size=     768KiB time=00:00:02.53 bitrate=2483.6kbits/s speed=0.0116x elapsed=0:03:38.51    \nframe=  155 fps=0.7 q=43.3 size=     768KiB time=00:00:02.55 bitrate=2467.4kbits/s speed=0.0116x elapsed=0:03:39.03    \nframe=  155 fps=0.7 q=43.3 size=     768KiB time=00:00:02.55 bitrate=2467.4kbits/s speed=0.0116x elapsed=0:03:39.55    \nframe=  156 fps=0.7 q=43.2 size=     768KiB time=00:00:02.56 bitrate=2451.4kbits/s speed=0.0117x elapsed=0:03:40.08    \nframe=  158 fps=0.7 q=42.2 size=     768KiB time=00:00:02.58 bitrate=2435.5kbits/s speed=0.0117x elapsed=0:03:40.66    \nframe=  158 fps=0.7 q=42.2 size=     768KiB time=00:00:02.60 bitrate=2419.9kbits/s speed=0.0117x elapsed=0:03:41.28    \nframe=  158 fps=0.7 q=42.2 size=     768KiB time=00:00:02.60 bitrate=2419.9kbits/s speed=0.0117x elapsed=0:03:41.82    \nframe=  159 fps=0.7 q=43.6 size=     768KiB time=00:00:02.61 bitrate=2404.5kbits/s speed=0.0118x elapsed=0:03:42.34    \nframe=  159 fps=0.7 q=43.6 size=     768KiB time=00:00:02.61 bitrate=2404.5kbits/s speed=0.0117x elapsed=0:03:42.87    \nframe=  159 fps=0.7 q=43.6 size=     768KiB time=00:00:02.61 bitrate=2404.5kbits/s speed=0.0117x elapsed=0:03:43.41    \nframe=  159 fps=0.7 q=43.6 size=     768KiB time=00:00:02.61 bitrate=2404.5kbits/s speed=0.0117x elapsed=0:03:43.95    \nframe=  160 fps=0.7 q=43.3 size=     768KiB time=00:00:02.63 bitrate=2389.3kbits/s speed=0.0117x elapsed=0:03:44.48    \nframe=  161 fps=0.7 q=43.4 size=     768KiB time=00:00:02.65 bitrate=2374.3kbits/s speed=0.0118x elapsed=0:03:45.00    \nframe=  161 fps=0.7 q=43.4 size=     768KiB time=00:00:02.65 bitrate=2374.3kbits/s speed=0.0117x elapsed=0:03:45.53    \nframe=  161 fps=0.7 q=43.4 size=     768KiB time=00:00:02.65 bitrate=2374.3kbits/s speed=0.0117x elapsed=0:03:46.08    \nframe=  161 fps=0.7 q=43.4 size=     768KiB time=00:00:02.65 bitrate=2374.3kbits/s speed=0.0117x elapsed=0:03:46.62    \nframe=  163 fps=0.7 q=42.2 size=     768KiB time=00:00:02.68 bitrate=2344.8kbits/s speed=0.0118x elapsed=0:03:47.15    \nframe=  163 fps=0.7 q=42.2 size=     768KiB time=00:00:02.68 bitrate=2344.8kbits/s speed=0.0118x elapsed=0:03:47.69    \nframe=  163 fps=0.7 q=42.2 size=     768KiB time=00:00:02.68 bitrate=2344.8kbits/s speed=0.0118x elapsed=0:03:48.26    \nframe=  163 fps=0.7 q=42.2 size=     768KiB time=00:00:02.68 bitrate=2344.8kbits/s speed=0.0117x elapsed=0:03:48.84    \nframe=  163 fps=0.7 q=42.2 size=     768KiB time=00:00:02.68 bitrate=2344.8kbits/s speed=0.0117x elapsed=0:03:49.39    \nframe=  164 fps=0.7 q=43.5 size=     768KiB time=00:00:02.70 bitrate=2330.3kbits/s speed=0.0117x elapsed=0:03:49.97    \nframe=  164 fps=0.7 q=43.5 size=     768KiB time=00:00:02.70 bitrate=2330.3kbits/s speed=0.0117x elapsed=0:03:50.53    \nframe=  164 fps=0.7 q=43.5 size=     768KiB time=00:00:02.70 bitrate=2330.3kbits/s speed=0.0117x elapsed=0:03:51.14    \nframe=  164 fps=0.7 q=43.5 size=     768KiB time=00:00:02.70 bitrate=2330.3kbits/s speed=0.0117x elapsed=0:03:51.71    \nframe=  165 fps=0.7 q=43.4 size=     768KiB time=00:00:02.71 bitrate=2316.0kbits/s speed=0.0117x elapsed=0:03:52.25    \nframe=  166 fps=0.7 q=43.5 size=     768KiB time=00:00:02.73 bitrate=2301.9kbits/s speed=0.0117x elapsed=0:03:52.75    \nframe=  166 fps=0.7 q=43.5 size=     768KiB time=00:00:02.73 bitrate=2301.9kbits/s speed=0.0117x elapsed=0:03:53.28    \nframe=  166 fps=0.7 q=43.5 size=     768KiB time=00:00:02.73 bitrate=2301.9kbits/s speed=0.0117x elapsed=0:03:53.84    \nframe=  167 fps=0.7 q=36.5 size=     768KiB time=00:00:02.75 bitrate=2287.9kbits/s speed=0.0117x elapsed=0:03:54.36    \nframe=  168 fps=0.7 q=42.3 size=     768KiB time=00:00:02.76 bitrate=2274.1kbits/s speed=0.0118x elapsed=0:03:54.86    \nframe=  168 fps=0.7 q=42.3 size=     768KiB time=00:00:02.76 bitrate=2274.1kbits/s speed=0.0118x elapsed=0:03:55.39    \nframe=  169 fps=0.7 q=43.5 size=     768KiB time=00:00:02.78 bitrate=2260.5kbits/s speed=0.0118x elapsed=0:03:55.91    \nframe=  171 fps=0.7 q=43.2 size=     768KiB time=00:00:02.81 bitrate=2233.8kbits/s speed=0.0119x elapsed=0:03:56.42    \nframe=  172 fps=0.7 q=36.8 size=     768KiB time=00:00:02.83 bitrate=2220.6kbits/s speed=0.012x elapsed=0:03:56.96    \nframe=  173 fps=0.7 q=42.1 size=     768KiB time=00:00:02.85 bitrate=2207.7kbits/s speed=0.012x elapsed=0:03:57.54    \nframe=  173 fps=0.7 q=42.1 size=     768KiB time=00:00:02.85 bitrate=2207.7kbits/s speed=0.012x elapsed=0:03:58.06    \nframe=  174 fps=0.7 q=43.5 size=    1024KiB time=00:00:02.86 bitrate=2926.4kbits/s speed=0.012x elapsed=0:03:58.57    \nframe=  175 fps=0.7 q=43.2 size=    1024KiB time=00:00:02.88 bitrate=2909.5kbits/s speed=0.0121x elapsed=0:03:59.09    \nframe=  175 fps=0.7 q=43.2 size=    1024KiB time=00:00:02.88 bitrate=2909.5kbits/s speed=0.012x elapsed=0:03:59.60    \nframe=  176 fps=0.7 q=43.4 size=    1024KiB time=00:00:02.90 bitrate=2892.7kbits/s speed=0.0121x elapsed=0:04:00.11    \nframe=  176 fps=0.7 q=43.4 size=    1024KiB time=00:00:02.90 bitrate=2892.7kbits/s speed=0.0121x elapsed=0:04:00.63    \nframe=  177 fps=0.7 q=36.3 size=    1024KiB time=00:00:02.91 bitrate=2876.2kbits/s speed=0.0121x elapsed=0:04:01.16    \nframe=  178 fps=0.7 q=42.1 size=    1024KiB time=00:00:02.93 bitrate=2859.9kbits/s speed=0.0121x elapsed=0:04:01.70    \nframe=  178 fps=0.7 q=42.1 size=    1024KiB time=00:00:02.93 bitrate=2859.9kbits/s speed=0.0121x elapsed=0:04:02.23    \nframe=  179 fps=0.7 q=43.2 size=    1024KiB time=00:00:02.95 bitrate=2843.7kbits/s speed=0.0122x elapsed=0:04:02.75    \nframe=  180 fps=0.7 q=43.3 size=    1024KiB time=00:00:02.96 bitrate=2827.7kbits/s speed=0.0122x elapsed=0:04:03.29    \nframe=  180 fps=0.7 q=43.3 size=    1024KiB time=00:00:02.96 bitrate=2827.7kbits/s speed=0.0122x elapsed=0:04:03.84    \nframe=  181 fps=0.7 q=43.0 size=    1024KiB time=00:00:02.98 bitrate=2811.9kbits/s speed=0.0122x elapsed=0:04:04.38    \nframe=  181 fps=0.7 q=43.0 size=    1024KiB time=00:00:02.98 bitrate=2811.9kbits/s speed=0.0122x elapsed=0:04:04.90    \nframe=  182 fps=0.7 q=36.5 size=    1024KiB time=00:00:03.00 bitrate=2796.3kbits/s speed=0.0122x elapsed=0:04:05.43    \nframe=  183 fps=0.7 q=41.8 size=    1024KiB time=00:00:03.01 bitrate=2780.9kbits/s speed=0.0123x elapsed=0:04:05.95    \nframe=  183 fps=0.7 q=41.8 size=    1024KiB time=00:00:03.01 bitrate=2780.9kbits/s speed=0.0122x elapsed=0:04:06.48    \nframe=  183 fps=0.7 q=41.8 size=    1024KiB time=00:00:03.01 bitrate=2780.9kbits/s speed=0.0122x elapsed=0:04:07.03    \nframe=  184 fps=0.7 q=43.1 size=    1024KiB time=00:00:03.03 bitrate=2765.6kbits/s speed=0.0123x elapsed=0:04:07.56    \nframe=  185 fps=0.7 q=42.6 size=    1024KiB time=00:00:03.05 bitrate=2750.5kbits/s speed=0.0123x elapsed=0:04:08.08    \nframe=  186 fps=0.7 q=42.9 size=    1024KiB time=00:00:03.06 bitrate=2735.5kbits/s speed=0.0123x elapsed=0:04:08.62    \nframe=  186 fps=0.7 q=42.9 size=    1024KiB time=00:00:03.06 bitrate=2735.5kbits/s speed=0.0123x elapsed=0:04:09.13    \nframe=  187 fps=0.7 q=36.6 size=    1024KiB time=00:00:03.08 bitrate=2720.7kbits/s speed=0.0124x elapsed=0:04:09.65    \nframe=  188 fps=0.8 q=41.7 size=    1024KiB time=00:00:03.10 bitrate=2706.1kbits/s speed=0.0124x elapsed=0:04:10.17    \nframe=  189 fps=0.8 q=42.8 size=    1024KiB time=00:00:03.11 bitrate=2691.6kbits/s speed=0.0124x elapsed=0:04:10.69    \nframe=  189 fps=0.8 q=42.8 size=    1024KiB time=00:00:03.11 bitrate=2691.6kbits/s speed=0.0124x elapsed=0:04:11.22    \nframe=  189 fps=0.8 q=42.8 size=    1024KiB time=00:00:03.11 bitrate=2691.6kbits/s speed=0.0124x elapsed=0:04:11.77    \nframe=  189 fps=0.7 q=42.8 size=    1024KiB time=00:00:03.11 bitrate=2691.6kbits/s speed=0.0124x elapsed=0:04:12.31    \nframe=  190 fps=0.8 q=42.6 size=    1024KiB time=00:00:03.13 bitrate=2677.3kbits/s speed=0.0124x elapsed=0:04:12.83    \nframe=  191 fps=0.8 q=42.9 size=    1024KiB time=00:00:03.15 bitrate=2663.2kbits/s speed=0.0124x elapsed=0:04:13.35    \nframe=  193 fps=0.8 q=41.5 size=    1024KiB time=00:00:03.18 bitrate=2635.3kbits/s speed=0.0125x elapsed=0:04:13.89    \nframe=  193 fps=0.8 q=41.5 size=    1024KiB time=00:00:03.18 bitrate=2635.3kbits/s speed=0.0125x elapsed=0:04:14.41    \nframe=  193 fps=0.8 q=41.5 size=    1024KiB time=00:00:03.18 bitrate=2635.3kbits/s speed=0.0125x elapsed=0:04:14.93    \nframe=  194 fps=0.8 q=42.5 size=    1024KiB time=00:00:03.20 bitrate=2621.6kbits/s speed=0.0125x elapsed=0:04:15.46    \nframe=  195 fps=0.8 q=42.4 size=    1024KiB time=00:00:03.21 bitrate=2608.0kbits/s speed=0.0126x elapsed=0:04:15.99    \nframe=  196 fps=0.8 q=42.6 size=    1024KiB time=00:00:03.23 bitrate=2594.5kbits/s speed=0.0126x elapsed=0:04:16.51    \nframe=  197 fps=0.8 q=35.9 size=    1024KiB time=00:00:03.25 bitrate=2581.2kbits/s speed=0.0126x elapsed=0:04:17.02    \nframe=  198 fps=0.8 q=41.4 size=    1024KiB time=00:00:03.26 bitrate=2568.0kbits/s speed=0.0127x elapsed=0:04:17.55    \nframe=  198 fps=0.8 q=41.4 size=    1024KiB time=00:00:03.26 bitrate=2568.0kbits/s speed=0.0127x elapsed=0:04:18.10    \nframe=  198 fps=0.8 q=41.4 size=    1024KiB time=00:00:03.26 bitrate=2568.0kbits/s speed=0.0126x elapsed=0:04:18.63    \nframe=  198 fps=0.8 q=41.4 size=    1024KiB time=00:00:03.26 bitrate=2568.0kbits/s speed=0.0126x elapsed=0:04:19.15    \nframe=  199 fps=0.8 q=43.0 size=    1024KiB time=00:00:03.28 bitrate=2555.0kbits/s speed=0.0126x elapsed=0:04:19.67    \nframe=  201 fps=0.8 q=42.5 size=    1024KiB time=00:00:03.31 bitrate=2529.3kbits/s speed=0.0127x elapsed=0:04:20.18    \nframe=  201 fps=0.8 q=42.5 size=    1024KiB time=00:00:03.31 bitrate=2529.3kbits/s speed=0.0127x elapsed=0:04:20.70    \nframe=  202 fps=0.8 q=36.2 size=    1024KiB time=00:00:03.33 bitrate=2516.7kbits/s speed=0.0128x elapsed=0:04:21.21    \nframe=  203 fps=0.8 q=41.7 size=    1024KiB time=00:00:03.35 bitrate=2504.2kbits/s speed=0.0128x elapsed=0:04:21.73    \nframe=  203 fps=0.8 q=41.7 size=    1024KiB time=00:00:03.35 bitrate=2504.2kbits/s speed=0.0128x elapsed=0:04:22.25    \nframe=  204 fps=0.8 q=42.6 size=    1024KiB time=00:00:03.36 bitrate=2491.8kbits/s speed=0.0128x elapsed=0:04:22.77    \nframe=  204 fps=0.8 q=42.6 size=    1024KiB time=00:00:03.36 bitrate=2491.8kbits/s speed=0.0128x elapsed=0:04:23.27    \nframe=  205 fps=0.8 q=42.4 size=    1024KiB time=00:00:03.38 bitrate=2479.5kbits/s speed=0.0128x elapsed=0:04:23.80    \nframe=  207 fps=0.8 q=36.4 size=    1024KiB time=00:00:03.41 bitrate=2455.3kbits/s speed=0.0129x elapsed=0:04:24.30    \nframe=  208 fps=0.8 q=41.5 size=    1024KiB time=00:00:03.43 bitrate=2443.4kbits/s speed=0.013x elapsed=0:04:24.83    \nframe=  208 fps=0.8 q=41.5 size=    1024KiB time=00:00:03.43 bitrate=2443.4kbits/s speed=0.0129x elapsed=0:04:25.36    \nframe=  209 fps=0.8 q=42.8 size=    1024KiB time=00:00:03.45 bitrate=2431.6kbits/s speed=0.013x elapsed=0:04:25.88    \nframe=  210 fps=0.8 q=42.1 size=    1024KiB time=00:00:03.46 bitrate=2419.9kbits/s speed=0.013x elapsed=0:04:26.40    \nframe=  210 fps=0.8 q=42.1 size=    1024KiB time=00:00:03.46 bitrate=2419.9kbits/s speed=0.013x elapsed=0:04:26.92    \nframe=  212 fps=0.8 q=36.2 size=    1024KiB time=00:00:03.50 bitrate=2396.8kbits/s speed=0.0131x elapsed=0:04:27.46    \nframe=  213 fps=0.8 q=41.6 size=    1024KiB time=00:00:03.51 bitrate=2385.5kbits/s speed=0.0131x elapsed=0:04:27.99    \nframe=  214 fps=0.8 q=42.5 size=    1024KiB time=00:00:03.53 bitrate=2374.2kbits/s speed=0.0132x elapsed=0:04:28.51    \nframe=  215 fps=0.8 q=42.4 size=    1024KiB time=00:00:03.55 bitrate=2363.1kbits/s speed=0.0132x elapsed=0:04:29.03    \nframe=  215 fps=0.8 q=42.4 size=    1024KiB time=00:00:03.55 bitrate=2363.1kbits/s speed=0.0132x elapsed=0:04:29.58    \nframe=  215 fps=0.8 q=42.4 size=    1024KiB time=00:00:03.55 bitrate=2363.1kbits/s speed=0.0131x elapsed=0:04:30.16    \nframe=  215 fps=0.8 q=42.4 size=    1024KiB time=00:00:03.55 bitrate=2363.1kbits/s speed=0.0131x elapsed=0:04:30.69    \nframe=  216 fps=0.8 q=42.5 size=    1024KiB time=00:00:03.55 bitrate=2363.1kbits/s speed=0.0131x elapsed=0:04:31.25    \nframe=  216 fps=0.8 q=42.5 size=    1024KiB time=00:00:03.56 bitrate=2352.0kbits/s speed=0.0131x elapsed=0:04:31.97    \nframe=  216 fps=0.8 q=42.5 size=    1024KiB time=00:00:03.56 bitrate=2352.0kbits/s speed=0.0131x elapsed=0:04:32.55    \nframe=  217 fps=0.8 q=36.4 size=    1280KiB time=00:00:03.58 bitrate=2926.4kbits/s speed=0.0131x elapsed=0:04:33.10    \nframe=  217 fps=0.8 q=36.4 size=    1280KiB time=00:00:03.58 bitrate=2926.4kbits/s speed=0.0131x elapsed=0:04:33.66    \nframe=  217 fps=0.8 q=36.4 size=    1280KiB time=00:00:03.58 bitrate=2926.4kbits/s speed=0.0131x elapsed=0:04:34.18    \nframe=  217 fps=0.8 q=36.4 size=    1280KiB time=00:00:03.58 bitrate=2926.4kbits/s speed=0.013x elapsed=0:04:34.69    \nframe=  218 fps=0.8 q=41.9 size=    1280KiB time=00:00:03.60 bitrate=2912.8kbits/s speed=0.0131x elapsed=0:04:35.21    \nframe=  219 fps=0.8 q=42.8 size=    1280KiB time=00:00:03.61 bitrate=2899.4kbits/s speed=0.0131x elapsed=0:04:35.74    \nframe=  220 fps=0.8 q=42.7 size=    1280KiB time=00:00:03.63 bitrate=2886.1kbits/s speed=0.0132x elapsed=0:04:36.27    \nframe=  221 fps=0.8 q=42.8 size=    1280KiB time=00:00:03.65 bitrate=2872.9kbits/s speed=0.0132x elapsed=0:04:36.80    \nframe=  222 fps=0.8 q=36.9 size=    1280KiB time=00:00:03.66 bitrate=2859.8kbits/s speed=0.0132x elapsed=0:04:37.32    \nframe=  224 fps=0.8 q=43.5 size=    1280KiB time=00:00:03.70 bitrate=2834.1kbits/s speed=0.0133x elapsed=0:04:37.86    \nframe=  224 fps=0.8 q=43.5 size=    1280KiB time=00:00:03.70 bitrate=2834.1kbits/s speed=0.0133x elapsed=0:04:38.36    \nframe=  225 fps=0.8 q=43.3 size=    1280KiB time=00:00:03.71 bitrate=2821.4kbits/s speed=0.0133x elapsed=0:04:38.89    \nframe=  226 fps=0.8 q=43.5 size=    1280KiB time=00:00:03.73 bitrate=2808.8kbits/s speed=0.0134x elapsed=0:04:39.41    \nframe=  226 fps=0.8 q=43.5 size=    1280KiB time=00:00:03.73 bitrate=2808.8kbits/s speed=0.0133x elapsed=0:04:39.94    \nframe=  227 fps=0.8 q=37.0 size=    1280KiB time=00:00:03.75 bitrate=2796.3kbits/s speed=0.0134x elapsed=0:04:40.46    \nframe=  228 fps=0.8 q=43.8 size=    1280KiB time=00:00:03.76 bitrate=2783.9kbits/s speed=0.0134x elapsed=0:04:40.99    \nframe=  229 fps=0.8 q=44.3 size=    1280KiB time=00:00:03.78 bitrate=2771.7kbits/s speed=0.0134x elapsed=0:04:41.49    \nframe=  229 fps=0.8 q=44.3 size=    1280KiB time=00:00:03.78 bitrate=2771.7kbits/s speed=0.0134x elapsed=0:04:42.01    \nframe=  230 fps=0.8 q=44.5 size=    1280KiB time=00:00:03.80 bitrate=2759.5kbits/s speed=0.0134x elapsed=0:04:42.53    \nframe=  230 fps=0.8 q=44.5 size=    1280KiB time=00:00:03.80 bitrate=2759.5kbits/s speed=0.0134x elapsed=0:04:43.05    \nframe=  231 fps=0.8 q=44.1 size=    1280KiB time=00:00:03.81 bitrate=2747.5kbits/s speed=0.0135x elapsed=0:04:43.57    \nframe=  232 fps=0.8 q=38.7 size=    1280KiB time=00:00:03.83 bitrate=2735.5kbits/s speed=0.0135x elapsed=0:04:44.10    \nframe=  233 fps=0.8 q=45.2 size=    1280KiB time=00:00:03.85 bitrate=2723.7kbits/s speed=0.0135x elapsed=0:04:44.66    \nframe=  234 fps=0.8 q=45.0 size=    1280KiB time=00:00:03.86 bitrate=2711.9kbits/s speed=0.0136x elapsed=0:04:45.19    \nframe=  235 fps=0.8 q=45.2 size=    1280KiB time=00:00:03.88 bitrate=2700.3kbits/s speed=0.0136x elapsed=0:04:45.71    \nframe=  236 fps=0.8 q=45.6 size=    1280KiB time=00:00:03.90 bitrate=2688.7kbits/s speed=0.0136x elapsed=0:04:46.23    \nframe=  236 fps=0.8 q=45.6 size=    1280KiB time=00:00:03.90 bitrate=2688.7kbits/s speed=0.0136x elapsed=0:04:46.75    \nframe=  237 fps=0.8 q=39.6 size=    1280KiB time=00:00:03.91 bitrate=2677.3kbits/s speed=0.0136x elapsed=0:04:47.28    \nframe=  238 fps=0.8 q=45.6 size=    1280KiB time=00:00:03.93 bitrate=2666.0kbits/s speed=0.0137x elapsed=0:04:47.83    \nframe=  238 fps=0.8 q=45.6 size=    1280KiB time=00:00:03.93 bitrate=2666.0kbits/s speed=0.0136x elapsed=0:04:48.36    \nframe=  238 fps=0.8 q=45.6 size=    1280KiB time=00:00:03.93 bitrate=2666.0kbits/s speed=0.0136x elapsed=0:04:48.90    \nframe=  239 fps=0.8 q=45.8 size=    1280KiB time=00:00:03.95 bitrate=2654.7kbits/s speed=0.0136x elapsed=0:04:49.44    \nframe=  239 fps=0.8 q=45.8 size=    1280KiB time=00:00:03.95 bitrate=2654.7kbits/s speed=0.0136x elapsed=0:04:49.96    \nframe=  240 fps=0.8 q=46.0 size=    1280KiB time=00:00:03.96 bitrate=2643.6kbits/s speed=0.0137x elapsed=0:04:50.53    \nframe=  240 fps=0.8 q=46.0 size=    1280KiB time=00:00:03.96 bitrate=2643.6kbits/s speed=0.0136x elapsed=0:04:51.05    \nframe=  240 fps=0.8 q=46.0 size=    1280KiB time=00:00:03.96 bitrate=2643.6kbits/s speed=0.0136x elapsed=0:04:51.59    \nframe=  241 fps=0.8 q=46.1 size=    1280KiB time=00:00:03.98 bitrate=2632.5kbits/s speed=0.0136x elapsed=0:04:52.12    \nframe=  242 fps=0.8 q=40.6 size=    1280KiB time=00:00:04.00 bitrate=2621.5kbits/s speed=0.0137x elapsed=0:04:52.66    \nframe=  242 fps=0.8 q=40.6 size=    1280KiB time=00:00:04.00 bitrate=2621.5kbits/s speed=0.0136x elapsed=0:04:53.18    \nframe=  243 fps=0.8 q=46.2 size=    1280KiB time=00:00:04.01 bitrate=2610.7kbits/s speed=0.0137x elapsed=0:04:53.70    \nframe=  243 fps=0.8 q=46.2 size=    1280KiB time=00:00:04.01 bitrate=2610.7kbits/s speed=0.0137x elapsed=0:04:54.23    \nframe=  244 fps=0.8 q=46.4 size=    1280KiB time=00:00:04.03 bitrate=2599.9kbits/s speed=0.0137x elapsed=0:04:54.78    \nframe=  244 fps=0.8 q=46.4 size=    1280KiB time=00:00:04.03 bitrate=2599.9kbits/s speed=0.0137x elapsed=0:04:55.29    \nframe=  244 fps=0.8 q=46.4 size=    1280KiB time=00:00:04.03 bitrate=2599.9kbits/s speed=0.0136x elapsed=0:04:55.82    \nframe=  245 fps=0.8 q=46.7 size=    1280KiB time=00:00:04.05 bitrate=2589.2kbits/s speed=0.0137x elapsed=0:04:56.34    \nframe=  245 fps=0.8 q=46.7 size=    1280KiB time=00:00:04.05 bitrate=2589.2kbits/s speed=0.0136x elapsed=0:04:56.85    \nframe=  245 fps=0.8 q=46.7 size=    1280KiB time=00:00:04.05 bitrate=2589.2kbits/s speed=0.0136x elapsed=0:04:57.37    \nframe=  246 fps=0.8 q=46.6 size=    1280KiB time=00:00:04.06 bitrate=2578.6kbits/s speed=0.0137x elapsed=0:04:57.89    \nframe=  246 fps=0.8 q=46.6 size=    1280KiB time=00:00:04.06 bitrate=2578.6kbits/s speed=0.0136x elapsed=0:04:58.42    \nframe=  246 fps=0.8 q=46.6 size=    1280KiB time=00:00:04.06 bitrate=2578.6kbits/s speed=0.0136x elapsed=0:04:58.93    \nframe=  246 fps=0.8 q=46.6 size=    1280KiB time=00:00:04.06 bitrate=2578.6kbits/s speed=0.0136x elapsed=0:04:59.45    \nframe=  247 fps=0.8 q=37.5 size=    1280KiB time=00:00:04.08 bitrate=2568.0kbits/s speed=0.0136x elapsed=0:04:59.97    \nframe=  247 fps=0.8 q=37.5 size=    1280KiB time=00:00:04.08 bitrate=2568.0kbits/s speed=0.0136x elapsed=0:05:00.47    \nframe=  248 fps=0.8 q=48.2 size=    1536KiB time=00:00:04.10 bitrate=3069.1kbits/s speed=0.0136x elapsed=0:05:01.00    \nframe=  249 fps=0.8 q=48.5 size=    1536KiB time=00:00:04.11 bitrate=3056.7kbits/s speed=0.0137x elapsed=0:05:01.53    \nframe=  249 fps=0.8 q=48.5 size=    1536KiB time=00:00:04.11 bitrate=3056.7kbits/s speed=0.0136x elapsed=0:05:02.05    \nframe=  249 fps=0.8 q=48.5 size=    1536KiB time=00:00:04.11 bitrate=3056.7kbits/s speed=0.0136x elapsed=0:05:02.57    \nframe=  250 fps=0.8 q=48.1 size=    1536KiB time=00:00:04.13 bitrate=3044.3kbits/s speed=0.0136x elapsed=0:05:03.10    \nframe=  251 fps=0.8 q=48.3 size=    1536KiB time=00:00:04.15 bitrate=3032.1kbits/s speed=0.0137x elapsed=0:05:03.63    \nframe=  251 fps=0.8 q=48.3 size=    1536KiB time=00:00:04.15 bitrate=3032.1kbits/s speed=0.0136x elapsed=0:05:04.15    \nframe=  251 fps=0.8 q=48.3 size=    1536KiB time=00:00:04.15 bitrate=3032.1kbits/s speed=0.0136x elapsed=0:05:04.72    \nframe=  251 fps=0.8 q=48.3 size=    1536KiB time=00:00:04.15 bitrate=3032.1kbits/s speed=0.0136x elapsed=0:05:05.29    \nframe=  252 fps=0.8 q=41.3 size=    1536KiB time=00:00:04.16 bitrate=3020.0kbits/s speed=0.0136x elapsed=0:05:05.84    \nframe=  252 fps=0.8 q=41.3 size=    1536KiB time=00:00:04.16 bitrate=3020.0kbits/s speed=0.0136x elapsed=0:05:06.35    \nframe=  252 fps=0.8 q=41.3 size=    1536KiB time=00:00:04.16 bitrate=3020.0kbits/s speed=0.0136x elapsed=0:05:06.87    \nframe=  254 fps=0.8 q=48.3 size=    1536KiB time=00:00:04.20 bitrate=2996.0kbits/s speed=0.0137x elapsed=0:05:07.39    \nframe=  254 fps=0.8 q=48.3 size=    1536KiB time=00:00:04.20 bitrate=2996.0kbits/s speed=0.0136x elapsed=0:05:07.92    \nframe=  255 fps=0.8 q=48.3 size=    1536KiB time=00:00:04.21 bitrate=2984.2kbits/s speed=0.0137x elapsed=0:05:08.44    \nframe=  255 fps=0.8 q=48.3 size=    1536KiB time=00:00:04.21 bitrate=2984.2kbits/s speed=0.0136x elapsed=0:05:08.97    \nframe=  256 fps=0.8 q=47.8 size=    1536KiB time=00:00:04.23 bitrate=2972.4kbits/s speed=0.0137x elapsed=0:05:09.50    \nframe=  257 fps=0.8 q=43.1 size=    1536KiB time=00:00:04.25 bitrate=2960.8kbits/s speed=0.0137x elapsed=0:05:10.00    \nframe=  258 fps=0.8 q=48.5 size=    1536KiB time=00:00:04.26 bitrate=2949.2kbits/s speed=0.0137x elapsed=0:05:10.53    \nframe=  258 fps=0.8 q=48.5 size=    1536KiB time=00:00:04.26 bitrate=2949.2kbits/s speed=0.0137x elapsed=0:05:11.04    \nframe=  258 fps=0.8 q=48.5 size=    1536KiB time=00:00:04.26 bitrate=2949.2kbits/s speed=0.0137x elapsed=0:05:11.59    \nframe=  259 fps=0.8 q=48.6 size=    1536KiB time=00:00:04.28 bitrate=2937.7kbits/s speed=0.0137x elapsed=0:05:12.13    \nframe=  260 fps=0.8 q=48.6 size=    1536KiB time=00:00:04.30 bitrate=2926.3kbits/s speed=0.0138x elapsed=0:05:12.64    \nframe=  260 fps=0.8 q=48.6 size=    1536KiB time=00:00:04.30 bitrate=2926.3kbits/s speed=0.0137x elapsed=0:05:13.18    \nframe=  261 fps=0.8 q=49.0 size=    1536KiB time=00:00:04.31 bitrate=2915.0kbits/s speed=0.0138x elapsed=0:05:13.71    \nframe=  261 fps=0.8 q=49.0 size=    1536KiB time=00:00:04.31 bitrate=2915.0kbits/s speed=0.0137x elapsed=0:05:14.23    \nframe=  261 fps=0.8 q=49.0 size=    1536KiB time=00:00:04.31 bitrate=2915.0kbits/s speed=0.0137x elapsed=0:05:14.75    \nframe=  262 fps=0.8 q=43.3 size=    1536KiB time=00:00:04.33 bitrate=2903.8kbits/s speed=0.0137x elapsed=0:05:15.27    \nframe=  262 fps=0.8 q=43.3 size=    1536KiB time=00:00:04.33 bitrate=2903.8kbits/s speed=0.0137x elapsed=0:05:15.79    \nframe=  263 fps=0.8 q=48.5 size=    1536KiB time=00:00:04.35 bitrate=2892.7kbits/s speed=0.0138x elapsed=0:05:16.32    \nframe=  263 fps=0.8 q=48.5 size=    1536KiB time=00:00:04.35 bitrate=2892.7kbits/s speed=0.0137x elapsed=0:05:16.84    \nframe=  263 fps=0.8 q=48.5 size=    1536KiB time=00:00:04.35 bitrate=2892.7kbits/s speed=0.0137x elapsed=0:05:17.37    \nframe=  263 fps=0.8 q=48.5 size=    1536KiB time=00:00:04.35 bitrate=2892.7kbits/s speed=0.0137x elapsed=0:05:17.89    \nframe=  264 fps=0.8 q=48.8 size=    1536KiB time=00:00:04.36 bitrate=2881.7kbits/s speed=0.0137x elapsed=0:05:18.39    \nframe=  265 fps=0.8 q=49.4 size=    1536KiB time=00:00:04.38 bitrate=2870.7kbits/s speed=0.0137x elapsed=0:05:18.92    \nframe=  265 fps=0.8 q=49.4 size=    1536KiB time=00:00:04.38 bitrate=2870.7kbits/s speed=0.0137x elapsed=0:05:19.43    \nframe=  265 fps=0.8 q=49.4 size=    1536KiB time=00:00:04.38 bitrate=2870.7kbits/s speed=0.0137x elapsed=0:05:20.01    \nframe=  265 fps=0.8 q=49.4 size=    1536KiB time=00:00:04.38 bitrate=2870.7kbits/s speed=0.0137x elapsed=0:05:20.55    \nframe=  265 fps=0.8 q=49.4 size=    1536KiB time=00:00:04.38 bitrate=2870.7kbits/s speed=0.0136x elapsed=0:05:21.18    \nframe=  266 fps=0.8 q=49.2 size=    1536KiB time=00:00:04.40 bitrate=2859.8kbits/s speed=0.0137x elapsed=0:05:21.83    \nframe=  266 fps=0.8 q=49.2 size=    1536KiB time=00:00:04.40 bitrate=2859.8kbits/s speed=0.0136x elapsed=0:05:22.42    \nframe=  266 fps=0.8 q=49.2 size=    1536KiB time=00:00:04.40 bitrate=2859.8kbits/s speed=0.0136x elapsed=0:05:22.96    \nframe=  266 fps=0.8 q=49.2 size=    1536KiB time=00:00:04.40 bitrate=2859.8kbits/s speed=0.0136x elapsed=0:05:23.50    \nframe=  266 fps=0.8 q=49.2 size=    1536KiB time=00:00:04.40 bitrate=2859.8kbits/s speed=0.0136x elapsed=0:05:24.01    \nframe=  267 fps=0.8 q=43.6 size=    1536KiB time=00:00:04.41 bitrate=2849.0kbits/s speed=0.0136x elapsed=0:05:24.58    \nframe=  268 fps=0.8 q=48.7 size=    1536KiB time=00:00:04.43 bitrate=2838.3kbits/s speed=0.0136x elapsed=0:05:25.11    \nframe=  268 fps=0.8 q=48.7 size=    1536KiB time=00:00:04.43 bitrate=2838.3kbits/s speed=0.0136x elapsed=0:05:25.64    \nframe=  268 fps=0.8 q=48.7 size=    1536KiB time=00:00:04.43 bitrate=2838.3kbits/s speed=0.0136x elapsed=0:05:26.16    \nframe=  268 fps=0.8 q=48.7 size=    1536KiB time=00:00:04.43 bitrate=2838.3kbits/s speed=0.0136x elapsed=0:05:26.68    \nframe=  269 fps=0.8 q=48.9 size=    1536KiB time=00:00:04.45 bitrate=2827.7kbits/s speed=0.0136x elapsed=0:05:27.21    \nframe=  270 fps=0.8 q=49.3 size=    1536KiB time=00:00:04.46 bitrate=2817.1kbits/s speed=0.0136x elapsed=0:05:27.78    \nframe=  271 fps=0.8 q=49.3 size=    1536KiB time=00:00:04.48 bitrate=2806.7kbits/s speed=0.0137x elapsed=0:05:28.30    \nframe=  271 fps=0.8 q=49.3 size=    1536KiB time=00:00:04.48 bitrate=2806.7kbits/s speed=0.0136x elapsed=0:05:28.82    \nframe=  272 fps=0.8 q=43.7 size=    1536KiB time=00:00:04.50 bitrate=2796.3kbits/s speed=0.0137x elapsed=0:05:29.33    \nframe=  273 fps=0.8 q=48.9 size=    1536KiB time=00:00:04.51 bitrate=2786.0kbits/s speed=0.0137x elapsed=0:05:29.85    \nframe=  273 fps=0.8 q=48.9 size=    1536KiB time=00:00:04.51 bitrate=2786.0kbits/s speed=0.0137x elapsed=0:05:30.38    \nframe=  273 fps=0.8 q=48.9 size=    1536KiB time=00:00:04.51 bitrate=2786.0kbits/s speed=0.0136x elapsed=0:05:30.90    \nframe=  273 fps=0.8 q=48.9 size=    1536KiB time=00:00:04.51 bitrate=2786.0kbits/s speed=0.0136x elapsed=0:05:31.44    \nframe=  273 fps=0.8 q=48.9 size=    1536KiB time=00:00:04.51 bitrate=2786.0kbits/s speed=0.0136x elapsed=0:05:31.98    \nframe=  274 fps=0.8 q=49.4 size=    1536KiB time=00:00:04.53 bitrate=2775.7kbits/s speed=0.0136x elapsed=0:05:32.49    \nframe=  275 fps=0.8 q=49.6 size=    1536KiB time=00:00:04.55 bitrate=2765.6kbits/s speed=0.0137x elapsed=0:05:33.01    \nframe=  275 fps=0.8 q=49.6 size=    1536KiB time=00:00:04.55 bitrate=2765.6kbits/s speed=0.0136x elapsed=0:05:33.56    \nframe=  276 fps=0.8 q=49.5 size=    1536KiB time=00:00:04.56 bitrate=2755.5kbits/s speed=0.0137x elapsed=0:05:34.10    \nframe=  276 fps=0.8 q=49.5 size=    1536KiB time=00:00:04.56 bitrate=2755.5kbits/s speed=0.0136x elapsed=0:05:34.65    \nframe=  276 fps=0.8 q=49.5 size=    1536KiB time=00:00:04.56 bitrate=2755.5kbits/s speed=0.0136x elapsed=0:05:35.18    \nframe=  277 fps=0.8 q=43.8 size=    1536KiB time=00:00:04.58 bitrate=2745.4kbits/s speed=0.0137x elapsed=0:05:35.70    \nframe=  277 fps=0.8 q=43.8 size=    1536KiB time=00:00:04.58 bitrate=2745.4kbits/s speed=0.0136x elapsed=0:05:36.22    \nframe=  277 fps=0.8 q=43.8 size=    1536KiB time=00:00:04.58 bitrate=2745.4kbits/s speed=0.0136x elapsed=0:05:36.74    \nframe=  277 fps=0.8 q=43.8 size=    1536KiB time=00:00:04.58 bitrate=2745.4kbits/s speed=0.0136x elapsed=0:05:37.26    \nframe=  278 fps=0.8 q=47.9 size=    1536KiB time=00:00:04.60 bitrate=2735.5kbits/s speed=0.0136x elapsed=0:05:37.79    \nframe=  278 fps=0.8 q=47.9 size=    1536KiB time=00:00:04.60 bitrate=2735.5kbits/s speed=0.0136x elapsed=0:05:38.32    \nframe=  278 fps=0.8 q=47.9 size=    1536KiB time=00:00:04.60 bitrate=2735.5kbits/s speed=0.0136x elapsed=0:05:38.84    \nframe=  279 fps=0.8 q=49.5 size=    1536KiB time=00:00:04.61 bitrate=2725.6kbits/s speed=0.0136x elapsed=0:05:39.37    \nframe=  280 fps=0.8 q=49.8 size=    1536KiB time=00:00:04.63 bitrate=2715.8kbits/s speed=0.0136x elapsed=0:05:39.90    \nframe=  280 fps=0.8 q=49.8 size=    1536KiB time=00:00:04.63 bitrate=2715.8kbits/s speed=0.0136x elapsed=0:05:40.42    \nframe=  281 fps=0.8 q=43.8 size=    1536KiB time=00:00:04.65 bitrate=2706.1kbits/s speed=0.0136x elapsed=0:05:40.94    \nframe=  281 fps=0.8 q=43.8 size=    1536KiB time=00:00:04.65 bitrate=2706.1kbits/s speed=0.0136x elapsed=0:05:41.46    \nframe=  281 fps=0.8 q=43.8 size=    1536KiB time=00:00:04.65 bitrate=2706.1kbits/s speed=0.0136x elapsed=0:05:41.99    \nframe=  282 fps=0.8 q=48.2 size=    1536KiB time=00:00:04.66 bitrate=2696.4kbits/s speed=0.0136x elapsed=0:05:42.51    \nframe=  282 fps=0.8 q=48.2 size=    1536KiB time=00:00:04.66 bitrate=2696.4kbits/s speed=0.0136x elapsed=0:05:43.05    \nframe=  282 fps=0.8 q=48.2 size=    1536KiB time=00:00:04.66 bitrate=2696.4kbits/s speed=0.0136x elapsed=0:05:43.57    \nframe=  283 fps=0.8 q=49.5 size=    1792KiB time=00:00:04.68 bitrate=3134.6kbits/s speed=0.0136x elapsed=0:05:44.10    \nframe=  284 fps=0.8 q=50.0 size=    1792KiB time=00:00:04.70 bitrate=3123.5kbits/s speed=0.0136x elapsed=0:05:44.61    \nframe=  284 fps=0.8 q=50.0 size=    1792KiB time=00:00:04.70 bitrate=3123.5kbits/s speed=0.0136x elapsed=0:05:45.14    \nframe=  284 fps=0.8 q=50.0 size=    1792KiB time=00:00:04.70 bitrate=3123.5kbits/s speed=0.0136x elapsed=0:05:45.67    \nframe=  285 fps=0.8 q=49.7 size=    1792KiB time=00:00:04.71 bitrate=3112.5kbits/s speed=0.0136x elapsed=0:05:46.18    \nframe=  285 fps=0.8 q=49.7 size=    1792KiB time=00:00:04.71 bitrate=3112.5kbits/s speed=0.0136x elapsed=0:05:46.71    \nframe=  285 fps=0.8 q=49.7 size=    1792KiB time=00:00:04.71 bitrate=3112.5kbits/s speed=0.0136x elapsed=0:05:47.23    \nframe=  286 fps=0.8 q=43.7 size=    1792KiB time=00:00:04.73 bitrate=3101.5kbits/s speed=0.0136x elapsed=0:05:47.75    \nframe=  287 fps=0.8 q=48.1 size=    1792KiB time=00:00:04.75 bitrate=3090.6kbits/s speed=0.0136x elapsed=0:05:48.29    \nframe=  287 fps=0.8 q=48.1 size=    1792KiB time=00:00:04.75 bitrate=3090.6kbits/s speed=0.0136x elapsed=0:05:48.81    \nframe=  288 fps=0.8 q=49.7 size=    1792KiB time=00:00:04.76 bitrate=3079.8kbits/s speed=0.0136x elapsed=0:05:49.33    \nframe=  288 fps=0.8 q=49.7 size=    1792KiB time=00:00:04.76 bitrate=3079.8kbits/s speed=0.0136x elapsed=0:05:49.85    \nframe=  289 fps=0.8 q=49.9 size=    1792KiB time=00:00:04.78 bitrate=3069.1kbits/s speed=0.0137x elapsed=0:05:50.36    \nframe=  290 fps=0.8 q=49.5 size=    1792KiB time=00:00:04.80 bitrate=3058.4kbits/s speed=0.0137x elapsed=0:05:50.90    \nframe=  290 fps=0.8 q=49.5 size=    1792KiB time=00:00:04.80 bitrate=3058.4kbits/s speed=0.0137x elapsed=0:05:51.42    \nframe=  291 fps=0.8 q=44.1 size=    1792KiB time=00:00:04.81 bitrate=3047.8kbits/s speed=0.0137x elapsed=0:05:51.92    \nframe=  291 fps=0.8 q=44.1 size=    1792KiB time=00:00:04.81 bitrate=3047.8kbits/s speed=0.0137x elapsed=0:05:52.45    \nframe=  291 fps=0.8 q=44.1 size=    1792KiB time=00:00:04.81 bitrate=3047.8kbits/s speed=0.0136x elapsed=0:05:52.99    \nframe=  291 fps=0.8 q=44.1 size=    1792KiB time=00:00:04.81 bitrate=3047.8kbits/s speed=0.0136x elapsed=0:05:53.54    \nframe=  292 fps=0.8 q=49.2 size=    1792KiB time=00:00:04.83 bitrate=3037.3kbits/s speed=0.0137x elapsed=0:05:54.05    \nframe=  292 fps=0.8 q=49.2 size=    1792KiB time=00:00:04.83 bitrate=3037.3kbits/s speed=0.0136x elapsed=0:05:54.57    \nframe=  293 fps=0.8 q=49.6 size=    1792KiB time=00:00:04.85 bitrate=3026.9kbits/s speed=0.0137x elapsed=0:05:55.09    \nframe=  294 fps=0.8 q=50.4 size=    1792KiB time=00:00:04.86 bitrate=3016.5kbits/s speed=0.0137x elapsed=0:05:55.60    \nframe=  295 fps=0.8 q=50.0 size=    1792KiB time=00:00:04.88 bitrate=3006.2kbits/s speed=0.0137x elapsed=0:05:56.12    \nframe=  295 fps=0.8 q=50.0 size=    1792KiB time=00:00:04.88 bitrate=3006.2kbits/s speed=0.0137x elapsed=0:05:56.67    \nframe=  296 fps=0.8 q=45.0 size=    1792KiB time=00:00:04.90 bitrate=2996.0kbits/s speed=0.0137x elapsed=0:05:57.19    \nframe=  297 fps=0.8 q=49.9 size=    1792KiB time=00:00:04.91 bitrate=2985.8kbits/s speed=0.0137x elapsed=0:05:57.72    \nframe=  297 fps=0.8 q=49.9 size=    1792KiB time=00:00:04.91 bitrate=2985.8kbits/s speed=0.0137x elapsed=0:05:58.22    \nframe=  299 fps=0.8 q=49.5 size=    1792KiB time=00:00:04.95 bitrate=2965.7kbits/s speed=0.0138x elapsed=0:05:58.74    \n[mp4 @ 00000229548f7ac0] Starting second pass: moving the moov atom to the beginning of the file\n[out#0/mp4 @ 000002295486ab40] video:1911KiB audio:0KiB subtitle:0KiB other streams:0KiB global headers:2KiB muxing overhead: 0.348457%\nframe=  300 fps=0.8 q=49.2 Lsize=    1917KiB time=00:00:04.96 bitrate=3162.6kbits/s speed=0.0138x elapsed=0:05:59.22    \nx265 [info]: frame I:      2, Avg QP:38.98  kb/s: 41267.28\nx265 [info]: frame P:     59, Avg QP:38.67  kb/s: 6452.13 \nx265 [info]: frame B:    239, Avg QP:44.79  kb/s: 1989.10 \nx265 [info]: Weighted P-Frames: Y:0.0% UV:0.0%\n\nencoded 300 frames in 358.80s (0.84 fps), 3128.68 kb/s, Avg QP:43.55\n",
  "seconds": 359.5952498912811,
  "probe_out": {}
}